<svg xmlns="http://www.w3.org/2000/svg" xmlns:xlink="http://www.w3.org/1999/xlink" viewBox="0 0 100 125" version="1.1" x="0px" y="0px"><title>32</title><desc>Created with Sketch.</desc><g stroke="none" stroke-width="1" fill="none" fill-rule="evenodd"><g fill="#000000"><g><path d="M79.7296086,88.9922309 C75.253092,93.3110176 69.6061252,95.6894912 63.8284344,95.6894912 L35.9916438,95.6894912 C30.2141487,95.6894912 24.5669863,93.3110176 20.090274,88.9922309 C11.9560274,81.1446771 7.98968689,71.8333268 6.06189824,64.9276517 L93.7421331,64.9276517 C91.6693346,72.3705088 87.6217808,81.3785323 79.7296086,88.9922309 L79.7296086,88.9922309 Z M8.53332681,51.8468297 L17.4006458,51.8468297 C17.6609198,51.8705088 17.9239335,51.8844031 18.1900783,51.8844031 C18.4564188,51.8844031 18.7192368,51.8705088 18.9795108,51.8468297 L26.7503523,51.8468297 L48.1272603,51.8468297 L89.5231507,51.8468297 L95.8714873,51.8468297 C95.7910568,53.7665949 95.5253033,57.0247162 94.6936008,61.0137573 L5.11121331,61.0137573 C5.10612524,60.9892955 5.10123288,60.965225 5.09614481,60.9407632 C5.05446184,60.7386106 5.01414873,60.5382192 4.97540117,60.3397847 C4.96972603,60.3108219 4.96365949,60.2818591 4.95818004,60.2532877 C4.91825832,60.0468297 4.88009785,59.8431115 4.84291585,59.6409589 C4.83332681,59.5885127 4.82354207,59.5360665 4.81434442,59.4842074 C4.77892368,59.2890998 4.7448728,59.0957534 4.71219178,58.9051468 C4.7041683,58.8570059 4.69614481,58.8098434 4.68812133,58.7618982 C4.6595499,58.5906654 4.63156556,58.420998 4.60475538,58.2534834 C4.59908023,58.2182583 4.59340509,58.1826419 4.58772994,58.1478082 C4.55857143,57.9624853 4.53097847,57.7806849 4.50436399,57.6000587 C4.4965362,57.5474168 4.48870841,57.4951663 4.48088063,57.4429159 C4.45563601,57.2679648 4.43117417,57.0949706 4.4076908,56.9245205 C4.40103718,56.8763796 4.39497065,56.8290215 4.38851272,56.781272 C4.36796477,56.6282387 4.3483953,56.4769667 4.32941292,56.3278474 C4.32549902,56.2965362 4.32119374,56.2644423 4.31747554,56.2333268 C4.29634051,56.0660078 4.27716243,55.9022114 4.25837573,55.7403718 C4.25270059,55.6934051 4.24741683,55.6464384 4.24213307,55.5996673 C4.22432485,55.4429159 4.20729941,55.2885127 4.19144814,55.137045 C4.18694716,55.0943836 4.18264188,55.0525049 4.17833659,55.0104305 C4.16405088,54.8714873 4.15035225,54.7343053 4.13763209,54.6004501 C4.13508806,54.574227 4.13234834,54.5478082 4.13,54.5217808 C4.11610568,54.3754012 4.10358121,54.2329354 4.09144814,54.0922309 C4.08812133,54.0534834 4.08459883,54.0145401 4.08146771,53.9759883 C4.06972603,53.8374364 4.05876712,53.7016243 4.04878669,53.5689432 C4.04643836,53.5362622 4.04389432,53.5041683 4.04135029,53.4718787 C4.03215264,53.3446771 4.02315068,53.2198239 4.0151272,53.0986888 C4.01395303,53.0824462 4.01277886,53.0658121 4.0116047,53.0495695 C4.00318982,52.9221722 3.99555773,52.7990802 3.98870841,52.678728 C3.98694716,52.6513307 3.98518591,52.6235421 3.98362035,52.5967319 C3.97696673,52.4781409 3.9709002,52.3628767 3.96542074,52.2515264 C3.96424658,52.227456 3.96307241,52.2037769 3.96189824,52.1799022 C3.95661448,52.0654207 3.95113503,51.953092 3.94702544,51.8468297 L8.53332681,51.8468297 Z M6.99497065,40.9673777 C6.99497065,36.3754012 8.33880626,31.2650294 10.5898826,27.2967319 C12.5949706,23.7624853 15.0525049,21.5924266 17.4360665,21.2125832 C17.439589,21.2121918 17.4435029,21.211409 17.4470254,21.2108219 C17.518454,21.1994716 17.5898826,21.1904697 17.6609198,21.1826419 C17.6730528,21.1810763 17.6849902,21.1795108 17.6969276,21.1781409 C17.7622896,21.1712916 17.827456,21.1665949 17.8926223,21.162681 C17.9090607,21.1617025 17.925499,21.1597456 17.9419374,21.1589628 C18.0221722,21.1548532 18.102407,21.1525049 18.1822505,21.1525049 C18.3202153,21.1525049 18.4585714,21.1593542 18.5969276,21.1718787 C18.6436986,21.1763796 18.6900783,21.1849902 18.7364579,21.1906654 C18.8288258,21.20182 18.9211937,21.2125832 19.0133659,21.2292172 C19.0685519,21.2391977 19.1241292,21.2536791 19.1795108,21.2658121 C19.2628767,21.283816 19.3464384,21.3010372 19.43,21.3233464 C19.4890998,21.3391977 19.5483953,21.3593542 19.6071037,21.3771624 C19.6871429,21.4014286 19.7669863,21.4249119 19.8468297,21.4532877 C19.9078865,21.4746184 19.9687476,21.5000587 20.0296086,21.5239335 C20.1072994,21.5542661 20.1851859,21.5840117 20.262681,21.6180626 C20.3247162,21.6452642 20.3869472,21.6757926 20.4487867,21.7051468 C20.5251076,21.741546 20.6012329,21.7773581 20.6771624,21.8168885 C20.7399804,21.8495695 20.802407,21.8851859 20.8648337,21.9200196 C20.9399804,21.9620939 21.0153229,22.0039726 21.0900783,22.0491781 C21.1527006,22.0869472 21.2151272,22.1270646 21.2777495,22.167182 C21.3519178,22.2149315 21.4260861,22.2628767 21.5002544,22.3135616 C21.562681,22.3564188 21.6249119,22.4012329 21.6869472,22.4462427 C21.7605284,22.4994716 21.8341096,22.5532877 21.9072994,22.6096477 C21.9693346,22.6572016 22.0309785,22.7063209 22.0926223,22.7560274 C22.1654207,22.8147358 22.2380235,22.8746184 22.3104305,22.9360665 C22.371683,22.988317 22.4329354,23.041546 22.4937965,23.0959491 C22.5660078,23.1599413 22.6376321,23.225499 22.7092564,23.2922309 C22.769726,23.3489824 22.8298043,23.4061252 22.8900783,23.464638 C22.9611155,23.5341096 23.0321526,23.6051468 23.1029941,23.6773581 C23.1620939,23.7380235 23.2213894,23.7988845 23.2802935,23.8615068 C23.351135,23.9364579 23.4215851,24.0135616 23.4916438,24.0912524 C23.5493738,24.1554403 23.6071037,24.2194325 23.6642466,24.2851859 C23.7346967,24.3660078 23.804364,24.4491781 23.8740313,24.5323483 C23.93,24.5996673 23.9861644,24.6665949 24.0417417,24.7354795 C24.1116047,24.8221722 24.1806849,24.9112133 24.2495695,25.0004501 C24.3037769,25.0703131 24.35818,25.1397847 24.4116047,25.211409 C24.481272,25.3041683 24.5495695,25.3992759 24.6182583,25.4945793 C24.6701174,25.5667906 24.7223679,25.6382192 24.7736399,25.7119961 C24.8431115,25.811409 24.9116047,25.9137573 24.9799022,26.01591 C25.0288258,26.0890998 25.0783366,26.1611155 25.1266732,26.2354795 C25.1971233,26.3436986 25.2662035,26.4550489 25.3354795,26.5658121 C25.3804892,26.6380235 25.4262818,26.708865 25.4707045,26.7822505 C25.5436986,26.9026027 25.6153229,27.0260861 25.6869472,27.1489824 C25.7260861,27.2164971 25.7658121,27.2824462 25.8045597,27.3505479 C25.8869472,27.4957534 25.9675734,27.6444814 26.0480039,27.7934051 C26.074227,27.8425245 26.1016243,27.890274 26.1278474,27.939589 C26.3407632,28.341546 26.5458513,28.7570059 26.7429159,29.1845988 C26.7679648,29.239002 26.7916438,29.2949706 26.8164971,29.3499609 C26.8885127,29.5092564 26.9607241,29.6691389 27.0301957,29.8319569 C27.0628767,29.9078865 27.0937965,29.9859687 27.1256947,30.0622896 C27.1859687,30.2063209 27.2462427,30.3499609 27.3041683,30.4961448 C27.339002,30.5836204 27.3722701,30.6730528 27.4065166,30.7615068 C27.4597456,30.8994716 27.5129746,31.0372407 27.564638,31.176771 C27.5992759,31.2712916 27.6323483,31.367182 27.6663992,31.4624853 C27.7149315,31.5990802 27.7636595,31.7352838 27.8102348,31.8734442 C27.84409,31.9730528 27.8763796,32.0738356 27.9092564,32.174227 C27.9538748,32.3104305 27.9982975,32.4466341 28.0411546,32.5842074 C28.0732485,32.6881213 28.1041683,32.7930137 28.1354795,32.8975147 C28.1763796,33.0341096 28.2170841,33.1705088 28.2560274,33.3084736 C28.2865558,33.4161057 28.3157143,33.5247162 28.3452642,33.6331311 C28.3824462,33.7701174 28.4192368,33.9074951 28.4546575,34.0458513 C28.4830333,34.1562231 28.5102348,34.267182 28.5372407,34.3785323 C28.5710959,34.5168885 28.604364,34.6558317 28.6364579,34.795362 C28.6622896,34.9080822 28.6871429,35.0215851 28.7119961,35.1350881 C28.7286301,35.2118004 28.7444814,35.2889041 28.7605284,35.3660078 C28.6417417,35.4662035 28.5284344,35.571683 28.4137573,35.6755969 C28.4051468,35.683229 28.3965362,35.6908611 28.3879256,35.6986888 C28.2407632,35.832544 28.097319,35.9699217 27.9568102,36.1096477 C27.939589,36.1266732 27.9223679,36.1436986 27.9051468,36.1609198 C27.7693346,36.2975147 27.6366536,36.4364579 27.5072994,36.5785323 C27.4869472,36.6004501 27.4669863,36.6231507 27.4472211,36.6452642 C27.320411,36.785773 27.1963405,36.9280431 27.0759883,37.0732485 C27.0550489,37.0984932 27.0348924,37.1245205 27.0143444,37.1499609 C26.8957534,37.295362 26.7789237,37.4419374 26.6667906,37.5920352 C26.6483953,37.6164971 26.6311742,37.6421331 26.6127789,37.6667906 C26.3256947,38.0562231 26.060137,38.4599413 25.8170841,38.8769667 C25.7845988,38.932544 25.7525049,38.988317 25.7208023,39.0446771 C24.241546,36.4090607 21.4211937,34.6233464 18.1900783,34.6233464 C13.4313699,34.6233464 9.5597456,38.4949706 9.5597456,43.2538748 C9.5597456,44.9777495 10.069726,46.5836204 10.9438943,47.9329354 L9.43019569,47.9329354 C7.85426614,45.9568102 6.99497065,43.5135616 6.99497065,40.9673777 L6.99497065,40.9673777 Z M23.9701174,16.5789237 C24.806908,16.4346967 25.4552446,15.7679648 25.5755969,14.9276517 C26.4746184,8.64878669 31.9433072,3.91395303 38.2957534,3.91395303 C41.3814677,3.91395303 44.3644423,5.02354207 46.695362,7.03821918 C49.0033855,9.03332681 50.5305871,11.7818591 50.9955577,14.7779452 C51.0237378,14.9585714 51.0757926,15.1301957 51.1487867,15.2900783 C51.146047,15.2984932 51.1436986,15.3072994 51.1407632,15.3157143 C50.1031898,18.3855773 50.1047554,21.7689432 51.2431115,24.9012329 C51.1468297,24.9996673 51.0548532,25.1012329 50.9620939,25.2020157 C50.9164971,25.2517221 50.8687476,25.2996673 50.8241292,25.3499609 C50.7497652,25.4333268 50.6795108,25.5192368 50.6076908,25.604364 C50.5474168,25.6752055 50.4853816,25.7446771 50.4268689,25.8166928 C50.3740313,25.8814677 50.3249119,25.948591 50.2734442,26.0143444 C50.1996673,26.108865 50.1241292,26.2027984 50.0528963,26.2990802 C50.0135616,26.3521135 49.9773581,26.406908 49.939002,26.4607241 C49.8591585,26.5718787 49.7785323,26.6828376 49.7026027,26.7963405 C49.6714873,26.8423288 49.6433072,26.8900783 49.6129746,26.9366536 C49.532544,27.0595499 49.4521135,27.1824462 49.376184,27.3080822 C49.3665949,27.3235421 49.35818,27.3397847 49.3487867,27.3554403 C49.1501566,27.6861644 48.9654207,28.0243249 48.7967319,28.3703131 C48.7890998,28.3859687 48.7824462,28.4022114 48.7748141,28.4180626 C47.9943836,30.0356751 47.54409,31.8082779 47.4685519,33.6405675 C47.4620939,33.7992759 47.4591585,33.957593 47.45818,34.11591 C47.4577886,34.167182 47.4589628,34.2182583 47.4591585,34.2695303 C47.4597456,34.3771624 47.4611155,34.4845988 47.4642466,34.5920352 C47.4660078,34.651135 47.4685519,34.7100391 47.4710959,34.7693346 C47.4754012,34.8703131 47.4808806,34.9709002 47.4873386,35.0714873 C47.4914481,35.1305871 47.4951663,35.1894912 47.499863,35.248591 C47.5082779,35.3540705 47.5180626,35.4591585 47.5290215,35.5644423 C47.5343053,35.6161057 47.539002,35.6679648 47.5448728,35.7192368 C47.5615068,35.8644423 47.5804892,36.0092564 47.60182,36.1532877 C47.6033855,36.1636595 47.6045597,36.1744227 47.6061252,36.1845988 C47.6294129,36.339002 47.6558317,36.492818 47.6844031,36.646047 C47.6934051,36.6941879 47.7035812,36.7419374 47.7131703,36.7898826 C47.7282387,36.8656164 47.7421331,36.941546 47.7585714,37.0168885 C47.6634638,36.9033855 47.5630724,36.7945793 47.4642466,36.6842074 C47.4346967,36.6509393 47.4057339,36.6168885 47.3757926,36.5840117 C47.2663992,36.4644423 47.1538748,36.3480039 47.0403718,36.2323483 C46.9943836,36.1853816 46.948591,36.1380235 46.90182,36.0916438 C46.7945793,35.9855773 46.6851859,35.8818591 46.574227,35.7793151 C46.5172798,35.7266732 46.460137,35.6740313 46.4022114,35.6219765 C46.295362,35.5266732 46.1875342,35.4331311 46.0775538,35.3409589 C46.011409,35.2853816 45.9442857,35.2305871 45.8769667,35.1763796 C45.7707045,35.0906654 45.6638552,35.0057339 45.5548532,34.9231507 C45.4789237,34.8656164 45.40182,34.8100391 45.3245205,34.7540705 C45.2198239,34.6779452 45.1153229,34.60182 45.0082779,34.5288258 C44.9198239,34.4685519 44.8290215,34.4110176 44.739002,34.3527006 C44.6391977,34.2881213 44.5407632,34.2221722 44.4393933,34.1603327 C44.3202153,34.0875342 44.1981018,34.0188454 44.0765753,33.9493738 C44.0002544,33.9063209 43.9256947,33.860137 43.848591,33.818454 C43.6503523,33.7106262 43.448591,33.6076908 43.2444814,33.5098434 C43.1763796,33.4769667 43.1065166,33.4478082 43.0380235,33.4163014 C42.894775,33.3505479 42.7515264,33.2851859 42.6059295,33.2243249 C42.5260861,33.1910568 42.4450685,33.1609198 42.3644423,33.1292172 C42.227456,33.0750098 42.0898826,33.0213894 41.9505479,32.971683 C41.865225,32.9411546 41.778728,32.9131703 41.6924266,32.8842074 C41.6002544,32.8534834 41.5092564,32.8206067 41.4164971,32.7916438 L41.4076908,32.4707045 C42.3845988,28.9842074 47.5431115,27.9660078 47.6131703,27.9527006 C48.6734442,27.7564188 49.3755969,26.7391977 49.1820548,25.6775538 C48.9881213,24.6143444 47.9691389,23.908865 46.9059295,24.1031898 C46.811409,24.120411 44.5609198,24.5403718 42.3061252,25.8245205 C41.9321526,26.0374364 41.581272,26.262681 41.2480039,26.4977104 L41.0579843,19.3879256 C41.0292172,18.3078865 40.1346967,17.4478082 39.0493738,17.4842074 C37.9691389,17.5129746 37.1164971,18.4121918 37.1456556,19.4926223 L37.3329354,26.4961448 C37.0004501,26.2615068 36.6501566,26.0368493 36.2773581,25.8245205 C34.0225636,24.5403718 31.7720744,24.120411 31.6773581,24.1031898 C30.6143444,23.9098434 29.5949706,24.6141487 29.4012329,25.6775538 C29.3969276,25.7012329 29.3955577,25.7245205 29.3920352,25.7481996 C29.3323483,25.639002 29.2722701,25.5296086 29.211409,25.4217808 C29.1699217,25.3483953 29.1276517,25.2763796 29.0855773,25.2037769 C29.0016243,25.0587671 28.9170841,24.9147358 28.8309785,24.7724658 C28.7853816,24.6969276 28.7393933,24.6215851 28.6932094,24.5470254 C28.6041683,24.4027984 28.513953,24.2607241 28.4227593,24.1198239 C28.3808806,24.0550489 28.3393933,23.9894912 28.297319,23.925499 C28.1640509,23.7239335 28.0294129,23.5245205 27.8920352,23.3298043 C27.7755969,23.1644423 27.657593,23.0033855 27.5391977,22.8444814 C27.5096477,22.8047554 27.4800978,22.7654207 27.4503523,22.7260861 C27.3333268,22.5714873 27.21591,22.4188454 27.0971233,22.2705088 C27.0951663,22.2677691 27.0930137,22.2650294 27.0912524,22.262681 C26.9699217,22.111409 26.8476125,21.964638 26.7249119,21.8198239 C26.6951663,21.7849902 26.6656164,21.7503523 26.6356751,21.71591 C26.5161057,21.5771624 26.3959491,21.4403718 26.2748141,21.3078865 C26.2707045,21.3035812 26.267182,21.2992759 26.2630724,21.2949706 C26.1378278,21.1583757 26.0116047,21.0258904 25.8847945,20.8959491 C25.8548532,20.8654207 25.8251076,20.8352838 25.7951663,20.8049511 C25.6730528,20.6820548 25.5503523,20.5607241 25.4266732,20.4438943 C25.420998,20.4386106 25.4157143,20.4331311 25.4102348,20.4280431 C25.281272,20.3061252 25.1509393,20.1887084 25.020411,20.0736399 C24.9900783,20.0470254 24.960137,20.020998 24.93,19.994775 C24.8057339,19.8873386 24.6810763,19.7818591 24.555636,19.6804892 C24.5480039,19.6746184 24.5407632,19.6683562 24.5335225,19.6624853 C24.4010372,19.5558317 24.2675734,19.4534834 24.1333268,19.3534834 C24.1031898,19.3309785 24.0726614,19.3086693 24.0423288,19.2865558 C23.9168885,19.194775 23.7910568,19.1055382 23.664638,19.0200196 C23.6546575,19.0131703 23.6446771,19.0059295 23.6346967,18.9992759 C23.4992759,18.9080822 23.3630724,18.8213894 23.2262818,18.7372407 C23.195362,18.7180626 23.1644423,18.699863 23.1335225,18.6810763 C23.0072994,18.6049511 22.8808806,18.5313699 22.7536791,18.4613112 C22.7409589,18.4544618 22.7286301,18.4472211 22.71591,18.4401761 C22.5781409,18.3650294 22.4393933,18.2937965 22.3004501,18.225499 C22.2685519,18.2100391 22.2368493,18.1949706 22.2049511,18.1795108 C22.0789237,18.1192368 21.9528963,18.0615068 21.8258904,18.006908 C21.8100391,17.999863 21.7943836,17.9926223 21.7785323,17.985773 C21.639002,17.9266732 21.4984932,17.871683 21.3579843,17.8194325 C21.3249119,17.8071037 21.2920352,17.7955577 21.2587671,17.7836204 C21.1337182,17.7386106 21.0082779,17.6961448 20.8822505,17.6568102 C20.8677691,17.6521135 20.8534834,17.6464384 20.8388063,17.6419374 C21.8086693,17.1298043 22.8622896,16.7693346 23.9701174,16.5789237 L23.9701174,16.5789237 Z M36.7573973,32.2084736 C36.6924266,32.2119961 36.6284344,32.2186497 36.5636595,32.2227593 C36.4026027,32.2333268 36.2411546,32.2436986 36.0810763,32.2597456 C36.0141487,32.2663992 35.9483953,32.2765753 35.8820548,32.2842074 C35.7245205,32.3022114 35.5669863,32.3206067 35.4104305,32.34409 C35.3525049,32.3528963 35.2955577,32.3648337 35.2378278,32.374227 C35.0736399,32.4012329 34.9094521,32.4290215 34.7464384,32.4622896 C34.702407,32.4712916 34.6591585,32.4822505 34.6153229,32.4916438 C34.4397847,32.5292172 34.2648337,32.5685519 34.0910568,32.6129746 C34.0630724,32.6202153 34.0354795,32.6288258 34.0071037,32.6362622 C33.8190411,32.685773 33.6317613,32.7382192 33.446047,32.7959491 C33.4354795,32.7992759 33.4251076,32.8031898 33.4143444,32.8067123 C33.0317613,32.9264775 32.6536791,33.0615068 32.2830333,33.2155186 C32.2192368,32.9624853 32.1521135,32.7108219 32.0828376,32.4603327 C32.0609198,32.381272 32.0378278,32.3027984 32.0155186,32.2241292 C31.9642466,32.0433072 31.9118004,31.8630724 31.857593,31.683816 C31.8292172,31.5900783 31.8002544,31.4967319 31.7712916,31.4035812 C31.7190411,31.2356751 31.6654207,31.0687476 31.6106262,30.902407 C31.5808806,30.8118004 31.5513307,30.7211937 31.5206067,30.6309785 C31.4577886,30.4446771 31.3926223,30.2599413 31.3266732,30.0757926 C31.3031898,30.0104305 31.2808806,29.9446771 31.2570059,29.8797065 C31.1673777,29.6346967 31.0752055,29.3916438 30.9804892,29.1507436 C30.9550489,29.0865558 30.9284344,29.0231507 30.9027984,28.9587671 C30.8309785,28.7797065 30.75818,28.6014286 30.6834247,28.4247162 C30.6470254,28.3388063 30.6100391,28.2536791 30.5730528,28.1681605 C30.511409,28.0256947 30.4489824,27.883816 30.3853816,27.7431115 C30.565225,27.8417417 30.762681,27.9149315 30.9755969,27.9536791 C31.0317613,27.9640509 35.937045,28.9000587 37.0910568,32.1996673 C36.9799022,32.2026027 36.8683562,32.2031898 36.7573973,32.2084736 L36.7573973,32.2084736 Z M28.174227,47.9329354 C28.1722701,47.9247162 28.169726,47.9166928 28.1677691,47.9084736 C28.1268689,47.7401761 28.0904697,47.5710959 28.0587671,47.4010372 C28.0505479,47.357593 28.0442857,47.3135616 28.0368493,47.2701174 C28.0143444,47.1405675 27.9943836,47.0106262 27.9775538,46.8802935 C27.9701174,46.8223679 27.9634638,46.7644423 27.9568102,46.7063209 C27.9433072,46.5828376 27.9321526,46.4591585 27.9233464,46.3350881 C27.9194325,46.2814677 27.9149315,46.2280431 27.9119961,46.174227 C27.902407,45.9994716 27.8961448,45.8241292 27.8961448,45.6480039 C27.8961448,45.464638 27.902407,45.2822505 27.9129746,45.1004501 C27.9157143,45.0521135 27.920411,45.004364 27.9237378,44.9562231 C27.9339139,44.8188454 27.946047,44.6820548 27.9617025,44.546047 C27.9673777,44.4981018 27.9736399,44.4505479 27.9800978,44.4026027 C27.9986888,44.2599413 28.0206067,44.1178669 28.0458513,43.976771 C28.0519178,43.9413503 28.0579843,43.9057339 28.064638,43.8707045 C28.0975147,43.6975147 28.1341096,43.525499 28.1763796,43.3550489 C28.176771,43.3528963 28.1773581,43.3507436 28.1779452,43.3487867 C28.2693346,42.9808806 28.3828376,42.6198239 28.5168885,42.267182 C28.5211937,42.255636 28.5260861,42.2442857 28.5303914,42.2329354 C28.5900783,42.0775538 28.6542661,41.9239335 28.7219765,41.7722701 C28.7352838,41.7423288 28.748591,41.7123875 28.7624853,41.6828376 C28.8243249,41.5472211 28.8900783,41.4133659 28.9583757,41.2808806 C28.9752055,41.2481996 28.9914481,41.2153229 29.0084736,41.1830333 C29.085773,41.037045 29.167182,40.8932094 29.2521135,40.7513307 C29.2597456,40.7384149 29.2667906,40.7249119 29.2746184,40.7119961 C29.3624853,40.5667906 29.4554403,40.4243249 29.551135,40.2840117 C29.5937965,40.2211937 29.6386106,40.1603327 29.6828376,40.0988845 C29.7366536,40.0237378 29.7908611,39.9487867 29.8472211,39.8750098 C29.9029941,39.8016243 29.9599413,39.7294129 30.0180626,39.657593 C30.0644423,39.599863 30.1119961,39.5431115 30.1599413,39.4865558 C30.2256947,39.4090607 30.2916438,39.3313699 30.3597456,39.2562231 C30.3955577,39.2163014 30.4335225,39.1777495 30.4701174,39.1384149 C30.6317613,38.965225 30.7994716,38.7977104 30.9734442,38.637045 C30.9930137,38.6190411 31.0119961,38.6000587 31.0315656,38.5820548 C31.1149315,38.5067123 31.2006458,38.4337182 31.2865558,38.3611155 C31.3323483,38.3223679 31.3781409,38.2836204 31.4247162,38.2458513 C31.5078865,38.1779452 31.5924266,38.1118004 31.6775538,38.0468297 C31.7303914,38.0067123 31.7842074,37.9677691 31.8378278,37.9286301 C32.4213894,37.5041683 33.0534834,37.1421331 33.7260861,36.8570059 C33.727456,36.8564188 33.7290215,36.8558317 33.7303914,36.8552446 C34.1523092,36.6765753 34.5896869,36.5278474 35.0397847,36.4110176 C35.055636,36.4067123 35.071683,36.4029941 35.0877299,36.3988845 C35.2153229,36.3665949 35.3438943,36.3368493 35.4734442,36.3096477 C35.4982975,36.3045597 35.522955,36.2988845 35.5478082,36.2939922 C35.8358708,36.2358708 36.1288258,36.1910568 36.425499,36.1593542 C36.4622896,36.155636 36.4992759,36.1525049 36.5358708,36.1491781 C36.6478082,36.1384149 36.760137,36.13 36.8730528,36.1233464 C36.9143444,36.1208023 36.9554403,36.1180626 36.9969276,36.1164971 C37.1433072,36.1098434 37.2904697,36.1051468 37.4388063,36.1051468 C37.599863,36.1051468 37.7597456,36.1094521 37.9192368,36.1174755 C37.9752055,36.1200196 38.0303914,36.1258904 38.0861644,36.1296086 C38.1887084,36.1364579 38.2910568,36.1427202 38.392818,36.1528963 C38.4605284,36.1597456 38.5276517,36.1695303 38.5951663,36.1777495 C38.6834247,36.1885127 38.7720744,36.1984932 38.8595499,36.211409 C38.9317613,36.2223679 39.0031898,36.2358708 39.0746184,36.2483953 C39.1564188,36.262681 39.2386106,36.2759883 39.3196282,36.2922309 C39.392818,36.306908 39.4648337,36.3241292 39.5374364,36.3405675 C39.6161057,36.35818 39.6949706,36.3754012 39.7728571,36.3949706 C39.8444814,36.4129746 39.9153229,36.4335225 39.9861644,36.453092 C40.0640509,36.4748141 40.1419374,36.4957534 40.2190411,36.5194325 C40.2877299,36.5403718 40.355636,36.5634638 40.4235421,36.5859687 C40.50182,36.6116047 40.5797065,36.6372407 40.6570059,36.6648337 C40.7221722,36.6885127 40.7865558,36.7133659 40.8509393,36.7382192 C40.9298043,36.7687476 41.008865,36.7990802 41.0867515,36.8313699 C41.1474168,36.8566145 41.2072994,36.883229 41.2673777,36.9094521 C41.3480039,36.9450685 41.4286301,36.9810763 41.5084736,37.0186497 C41.5636595,37.0448728 41.6180626,37.0720744 41.6724658,37.0988845 C41.7558317,37.1405675 41.8388063,37.1826419 41.920998,37.2264775 C41.9699217,37.2525049 42.018454,37.2797065 42.0669863,37.3067123 C42.1532877,37.3546575 42.2393933,37.4039726 42.3239335,37.4546575 C42.3663992,37.4799022 42.4084736,37.5057339 42.4505479,37.5317613 C42.5399804,37.5873386 42.6288258,37.6438943 42.7163014,37.702407 C42.7521135,37.7260861 42.7877299,37.7501566 42.8231507,37.7746184 C42.9157143,37.8382192 43.0072994,37.9031898 43.097319,37.9695303 C43.1264775,37.9910568 43.1552446,38.0125832 43.1842074,38.0343053 C43.2795108,38.1067123 43.3736399,38.1806849 43.4662035,38.2560274 C43.4887084,38.2744227 43.5110176,38.292818 43.5333268,38.311409 C43.6313699,38.392818 43.7276517,38.476184 43.8223679,38.5617025 C43.8382192,38.5757926 43.8540705,38.5898826 43.8699217,38.604364 C43.9699217,38.6957534 44.0679648,38.7892955 44.1638552,38.8845988 C44.1738356,38.8945793 44.1836204,38.9041683 44.1936008,38.9141487 C44.2949706,39.0157143 44.3939922,39.1194325 44.4906654,39.225499 C44.494775,39.2301957 44.4992759,39.2346967 44.5035812,39.239589 C45.5253033,40.3650294 46.2822505,41.7346967 46.6757926,43.2493738 C46.7123875,43.3912524 46.7458513,43.5343053 46.7759883,43.678728 C46.7769667,43.6836204 46.7783366,43.688317 46.7793151,43.6932094 C46.8730528,44.1431115 46.9348924,44.6049511 46.9628767,45.0763796 L46.9628767,45.0765753 C46.9669863,45.1468297 46.9693346,45.2102348 46.9718787,45.2750098 C46.9769667,45.3988845 46.9814677,45.522955 46.9814677,45.6480039 C46.9814677,45.8241292 46.9752055,45.9994716 46.9656164,46.174227 C46.9628767,46.2280431 46.95818,46.2814677 46.9544618,46.3350881 C46.9456556,46.4591585 46.934501,46.5828376 46.9208023,46.7063209 C46.9141487,46.7644423 46.9076908,46.8223679 46.9000587,46.8802935 C46.883229,47.0106262 46.8630724,47.1405675 46.8407632,47.2701174 C46.8331311,47.3135616 46.8270646,47.357593 46.8190411,47.4010372 C46.7873386,47.5710959 46.7509393,47.7401761 46.7098434,47.9084736 C46.7078865,47.9166928 46.7053425,47.9247162 46.7031898,47.9329354 L28.174227,47.9329354 Z M17.6045597,47.9329354 C15.2793151,47.6435029 13.4736399,45.6564188 13.4736399,43.2538748 C13.4736399,40.653092 15.5892955,38.5372407 18.1900783,38.5372407 C20.7908611,38.5372407 22.906908,40.653092 22.906908,43.2538748 C22.906908,45.6564188 21.1008415,47.6435029 18.7755969,47.9329354 L17.6045597,47.9329354 Z M70.9337182,11.322955 C71.6266732,11.8129746 72.5572016,11.7996673 73.2362622,11.2906654 C78.3119961,7.48714286 85.5268689,8.00514677 90.0186497,12.497319 C92.2006458,14.6793151 93.5253033,17.5730528 93.7489824,20.646047 C93.9703131,23.6887084 93.1065166,26.7121918 91.3168885,29.1595499 C90.764638,29.9147358 90.8241292,30.955636 91.4593542,31.6427202 C95.3213894,35.8217808 95.1932094,42.2487867 91.1669863,46.2746184 C90.5217808,46.9200196 89.8006458,47.4763796 89.0180626,47.9329354 L58.9507436,47.9329354 L62.5358708,44.2730528 C67.4894912,42.3102348 70.9327397,45.8433072 71.1035812,46.0235421 C71.4889041,46.4380235 72.0121918,46.6480039 72.5374364,46.6480039 C73.0108219,46.6480039 73.4859687,46.4771624 73.8618982,46.1311742 C74.6572016,45.3994716 74.708865,44.1615068 73.9769667,43.3662035 C72.7507436,42.0333268 70.1744227,40.2589628 66.8613112,39.8573973 L70.0662035,36.5853816 C70.1523092,36.5237378 70.2356751,36.4562231 70.3131703,36.3789237 C74.083816,32.6080822 79.4053425,35.9538748 79.6499609,36.1108219 C80.5538748,36.6992759 81.7632681,36.4458513 82.3546575,35.5436986 C82.9470254,34.6397847 82.6943836,33.4266732 81.7904697,32.8341096 C80.4480039,31.9544618 78.2436986,30.9930137 75.781272,30.7509393 L81.0074951,25.4155186 C81.7640509,24.6433072 81.751135,23.404364 80.9791194,22.6480039 C80.2067123,21.8918395 78.9675734,21.9045597 78.2116047,22.6765753 L73.141546,27.8527006 C72.8552446,25.5080822 71.9352838,23.4231507 71.090274,22.1339139 C70.4990802,21.2321526 69.2924266,20.981272 68.3890998,21.5689432 C67.4853816,22.1562231 67.2286301,23.3669863 67.8125832,24.2730528 C67.9513307,24.488317 71.027456,29.369726 68.0012329,33.1002544 L64.0722701,37.1112133 C63.6820548,33.7750098 61.8975147,31.1795108 60.55818,29.9472211 C59.7624853,29.2151272 58.5198239,29.2624853 57.7885127,30.0583757 C57.0568102,30.8536791 57.1035812,32.0873386 57.8990802,32.8190411 C58.0611155,32.9722701 61.8198239,36.6127789 59.4722701,41.8074951 L53.7695303,47.6292172 C53.676771,47.7239335 53.5957534,47.8258904 53.5262818,47.9329354 L50.7010372,47.9329354 C50.7137573,47.8587671 50.722955,47.7840117 50.7346967,47.7096477 C50.7468297,47.6301957 50.7597456,47.5505479 50.7707045,47.4707045 C50.7877299,47.3446771 50.8020157,47.2176712 50.8155186,47.0908611 C50.8233464,47.0182583 50.8323483,46.9456556 50.839002,46.8728571 C50.8528963,46.718454 50.8630724,46.5634638 50.8718787,46.4084736 C50.8744227,46.3628767 50.8785323,46.3176712 50.8808806,46.271683 C50.8896869,46.0771624 50.894775,45.8818591 50.895362,45.6861644 L53.5104305,42.774227 C54.1611155,42.0495695 54.1797065,40.9564188 53.5542661,40.2100391 C52.0550489,38.420411 51.2826419,36.1446771 51.3793151,33.8020157 C51.4763796,31.4458513 52.4491781,29.2290215 54.1174755,27.5605284 C54.339589,27.3386106 54.5757926,27.1249119 54.8194325,26.9256947 C55.5200196,26.3523092 55.7360665,25.3734442 55.3417417,24.5587671 C55.2618982,24.3936008 55.1877299,24.2262818 55.1168885,24.0577886 C55.1037769,24.0262818 55.0910568,23.9949706 55.0781409,23.9636595 C54.1149315,21.6031898 54.0433072,18.932544 54.8636595,16.5249119 C54.8777495,16.4836204 54.8922309,16.4427202 54.906908,16.40182 C54.9527006,16.2728571 55.0016243,16.1450685 55.0523092,16.0178669 C55.0705088,15.9726614 55.0871429,15.9272603 55.1059295,15.8824462 C55.1662035,15.7376321 55.2309785,15.5945793 55.2981018,15.4523092 C55.806908,14.3714873 56.5035812,13.3656164 57.381272,12.4881213 C61.0282387,8.84174168 66.7278474,8.3521135 70.9337182,11.322955 L70.9337182,11.322955 Z M98.2278474,63.2339139 C98.7163014,61.1253033 99.0568102,59.1789237 99.292818,57.4603327 C99.2934051,57.4570059 99.2939922,57.4536791 99.2943836,57.4503523 C99.3202153,57.2605284 99.3450685,57.0736399 99.3685519,56.8892955 C99.3695303,56.881272 99.3707045,56.8734442 99.3718787,56.8656164 C99.394775,56.6844031 99.4168885,56.5063209 99.4376321,56.3309785 C99.4388063,56.3206067 99.4401761,56.3102348 99.4413503,56.3002544 C99.4617025,56.1282387 99.4808806,55.9595499 99.4988845,55.7934051 C99.5004501,55.7797065 99.5020157,55.7660078 99.5035812,55.7525049 C99.5213894,55.588317 99.5382192,55.427456 99.5542661,55.2691389 C99.5558317,55.2552446 99.5572016,55.2409589 99.5583757,55.2270646 C99.574227,55.0695303 99.5889041,54.9155186 99.6031898,54.7642466 C99.604364,54.7499609 99.6055382,54.7358708 99.606908,54.7219765 C99.6208023,54.5724658 99.6333268,54.4260861 99.6454599,54.2824462 C99.6466341,54.2669863 99.6480039,54.2515264 99.6493738,54.2360665 C99.6609198,54.0949706 99.6718787,53.9572016 99.6820548,53.8219765 C99.6834247,53.8049511 99.6845988,53.7881213 99.685773,53.7714873 C99.6955577,53.6382192 99.7049511,53.5078865 99.7135616,53.3800978 C99.7147358,53.3640509 99.7157143,53.3478082 99.7166928,53.3315656 C99.7251076,53.2061252 99.7327397,53.0836204 99.7399804,52.9638552 C99.7409589,52.9462427 99.7419374,52.9288258 99.7431115,52.911409 C99.7499609,52.7937965 99.7560274,52.6791194 99.7617025,52.5675734 C99.762681,52.551135 99.7634638,52.5346967 99.7644423,52.5182583 C99.769726,52.4082779 99.7750098,52.3010372 99.7795108,52.1971233 C99.7802935,52.1799022 99.7808806,52.1632681 99.7816634,52.1462427 C99.7859687,52.0442857 99.7900783,51.9452642 99.7934051,51.8493738 C99.7939922,51.8331311 99.7945793,51.8174755 99.7949706,51.8012329 C99.7984932,51.7071037 99.8014286,51.6153229 99.8039726,51.5272603 C99.804364,51.5112133 99.8047554,51.4959491 99.8053425,51.4800978 C99.8076908,51.3943836 99.8096477,51.3110176 99.811409,51.2315656 C99.8118004,51.2151272 99.8121918,51.1996673 99.8123875,51.1836204 C99.813953,51.1067123 99.8153229,51.0319569 99.8164971,50.9611155 C99.8166928,50.9456556 99.8168885,50.9313699 99.8168885,50.9161057 C99.8178669,50.8468297 99.8186497,50.7797065 99.8190411,50.7168885 C99.8192368,50.702407 99.8192368,50.6894912 99.8194325,50.6754012 C99.8198239,50.6153229 99.8200196,50.5566145 99.8200196,50.5022114 C99.8202153,50.4869472 99.8200196,50.4736399 99.8200196,50.4589628 C99.8200196,50.4076908 99.8198239,50.3579843 99.8196282,50.3129746 C99.8194325,50.3006458 99.8194325,50.290274 99.8194325,50.2785323 C99.8190411,50.234501 99.8186497,50.1916438 99.8182583,50.1538748 C99.8180626,50.1411546 99.8178669,50.1309785 99.8176712,50.1188454 C99.8170841,50.085773 99.8168885,50.0527006 99.8163014,50.0247162 C99.8161057,50.0116047 99.8157143,50.00182 99.8157143,49.9896869 C99.8151272,49.9662035 99.8145401,49.9423288 99.8141487,49.9233464 C99.813953,49.9176712 99.8137573,49.9145401 99.8137573,49.9092564 C99.8125832,49.8630724 99.811409,49.8298043 99.8108219,49.8163014 C99.776184,48.8961448 99.1104305,48.1442857 98.2397847,47.9707045 C98.1153229,47.9458513 97.9867515,47.9329354 97.8552446,47.9329354 L94.9343053,47.9329354 C99.1249119,42.7967319 99.2855773,35.4908611 95.3284344,30.1828376 C97.0830333,27.2448728 97.9033855,23.8118004 97.6525049,20.3620939 C97.3607241,16.3521135 95.632544,12.576184 92.7863601,9.72980431 C89.91591,6.85935421 86.1067123,5.12921722 82.0605284,4.85798434 C78.5163014,4.62080235 75.0010372,5.51101761 72.0223679,7.38048924 C66.4039726,4.1595499 59.281272,5.05328767 54.6135616,9.72060665 C54.3505479,9.98381605 54.1000587,10.2554403 53.8609198,10.534501 C52.8707045,8.06581213 51.2986888,5.84369863 49.2546575,4.07716243 C46.2129746,1.44800391 42.320998,5.87084149e-05 38.2957534,5.87084149e-05 C34.2362622,5.87084149e-05 30.3194325,1.47011742 27.2665949,4.13919765 C24.5920352,6.4781409 22.7364579,9.59320939 21.9521135,13.0211937 C18.9393933,13.839589 16.2918395,15.6026027 14.3536791,18.0924266 C11.6822505,19.3057339 9.21649706,21.7859687 7.18577299,25.3656164 C4.61551859,29.8963405 3.08107632,35.7286301 3.08107632,40.9673777 C3.08107632,43.4200196 3.6744227,45.8004501 4.7855773,47.9329354 L1.96483366,47.9329354 C1.83332681,47.9329354 1.70475538,47.9458513 1.58029354,47.9707045 C0.709452055,48.1442857 0.0438943249,48.8961448 0.00925636008,49.8163014 C0.00866927593,49.8298043 0.00749510763,49.8630724 0.00632093933,49.9092564 C0.00632093933,49.9145401 0.00612524462,49.9176712 0.0059295499,49.9233464 C0.00553816047,49.9423288 0.00495107632,49.9662035 0.00436399217,49.9896869 C0.00436399217,50.00182 0.00416829746,50.0116047 0.00397260274,50.0247162 C0.00338551859,50.0527006 0.00299412916,50.085773 0.00240704501,50.1188454 C0.00221135029,50.1309785 0.00201565558,50.1411546 0.00181996086,50.1538748 C0.00142857143,50.1916438 0.001037182,50.234501 0.000645792564,50.2785323 C0.000645792564,50.290274 0.000645792564,50.3006458 0.000450097847,50.3129746 C0.000254403131,50.3599413 5.87084149e-05,50.411409 5.87084149e-05,50.464638 C5.87084149e-05,50.4769667 -0.000136986301,50.4879256 5.87084149e-05,50.5006458 C5.87084149e-05,50.5564188 0.000254403131,50.6163014 0.000645792564,50.678728 C0.00084148728,50.6914481 0.00084148728,50.7031898 0.001037182,50.7163014 C0.00142857143,50.7795108 0.00221135029,50.8466341 0.00318982387,50.9161057 C0.00338551859,50.9313699 0.00358121331,50.9456556 0.00377690802,50.9611155 C0.0047553816,51.0329354 0.00612524462,51.108865 0.00769080235,51.1869472 C0.00808219178,51.2014286 0.0082778865,51.2151272 0.00866927593,51.2298043 C0.0104305284,51.3106262 0.0125831703,51.395362 0.0149315068,51.4824462 C0.0153228963,51.4971233 0.0157142857,51.5116047 0.0161056751,51.5264775 C0.0186497065,51.6155186 0.0215851272,51.7082779 0.0251076321,51.8035812 C0.0254990215,51.818454 0.0260861057,51.8329354 0.0266731898,51.8478082 C0.03,51.9452642 0.0343052838,52.0462427 0.0386105675,52.1501566 C0.0391976517,52.1650294 0.0397847358,52.1795108 0.04037182,52.1943836 C0.0450684932,52.3004501 0.0503522505,52.4096477 0.0560273973,52.5217808 C0.0566144814,52.5362622 0.0573972603,52.5503523 0.0581800391,52.5648337 C0.0638551859,52.6785323 0.0703131115,52.7949706 0.0773581213,52.9147358 C0.0781409002,52.9301957 0.0791193738,52.9454599 0.0800978474,52.9609198 C0.0871428571,53.0828376 0.0949706458,53.2078865 0.103581213,53.3360665 C0.104363992,53.3491781 0.105342466,53.3624853 0.106125245,53.3755969 C0.114931507,53.5063209 0.124520548,53.6401761 0.134892368,53.7769667 C0.135479452,53.7896869 0.13665362,53.8027984 0.137436399,53.8155186 C0.148003914,53.9544618 0.159354207,54.0961448 0.17109589,54.2411546 C0.172270059,54.2525049 0.173248532,54.2642466 0.174227006,54.2757926 C0.186360078,54.4231507 0.199667319,54.5730528 0.213561644,54.7264775 C0.214540117,54.7366536 0.215518591,54.7470254 0.216497065,54.7570059 C0.230782779,54.9125832 0.246046967,55.0709002 0.262093933,55.232544 C0.263072407,55.2411546 0.264050881,55.2499609 0.264833659,55.2585714 C0.281272016,55.4227593 0.298688845,55.5896869 0.317475538,55.7603327 C0.317866928,55.7658121 0.318649706,55.7712916 0.319236791,55.7769667 C0.338219178,55.9507436 0.358375734,56.1276517 0.379510763,56.3074951 C0.379706458,56.3092564 0.380097847,56.3110176 0.380097847,56.3125832 C0.644677104,58.5444814 1.08792564,61.2405675 1.83019569,64.2313699 C5.22412916,77.9057339 12.155636,86.7759883 17.3726614,91.8092564 C22.5828376,96.8352838 29.195362,99.6033855 35.9916438,99.6033855 L63.8284344,99.6033855 C70.6251076,99.6033855 77.2372407,96.8352838 82.4472211,91.8092564 C91.8994716,82.690274 96.1164971,71.7789237 97.9898826,64.2313699 C98.0573973,63.9583757 98.1223679,63.688317 98.1853816,63.420411 C98.1855773,63.4194325 98.1859687,63.418454 98.1861644,63.4174755 C98.2006458,63.3558317 98.2137573,63.295362 98.2278474,63.2339139 L98.2278474,63.2339139 Z"/></g></g></g><text x="0" y="115" fill="#000000" font-size="5px" font-weight="bold" font-family="'Helvetica Neue', Helvetica, Arial-Unicode, Arial, Sans-serif">Created by AomAm</text><text x="0" y="120" fill="#000000" font-size="5px" font-weight="bold" font-family="'Helvetica Neue', Helvetica, Arial-Unicode, Arial, Sans-serif">from the Noun Project</text></svg>