<svg xmlns:dc="http://purl.org/dc/elements/1.1/" xmlns:cc="http://creativecommons.org/ns#" xmlns:rdf="http://www.w3.org/1999/02/22-rdf-syntax-ns#" xmlns:svg="http://www.w3.org/2000/svg" xmlns="http://www.w3.org/2000/svg" xmlns:sodipodi="http://sodipodi.sourceforge.net/DTD/sodipodi-0.dtd" xmlns:inkscape="http://www.inkscape.org/namespaces/inkscape" fill="#000000" version="1.1" x="0px" y="0px" viewBox="0 0 100 125"><path style="font-size:medium;font-style:normal;font-variant:normal;font-weight:normal;font-stretch:normal;text-indent:0;text-align:start;text-decoration:none;line-height:normal;letter-spacing:normal;word-spacing:normal;text-transform:none;direction:ltr;block-progression:tb;writing-mode:lr-tb;text-anchor:start;baseline-shift:baseline;opacity:1;color:#000000;fill:#000000;fill-opacity:1;stroke:none;stroke-width:3.99999905000000000;marker:none;visibility:visible;display:inline;overflow:visible;enable-background:accumulate;font-family:Sans;-inkscape-font-specification:Sans" d="M 49.78125 10.96875 A 2.0001995 2.0001995 0 0 0 48 13 L 48 23 L 30 23 A 2.0001995 2.0001995 0 0 0 29.8125 23 A 2.0021961 2.0021961 0 1 0 30 27 L 32 27 L 32 42.65625 L 24.375 45.09375 A 2.0001995 2.0001995 0 0 0 23.4375 48.25 C 28.193587 54.127579 30.937675 61.743577 31 69.875 C 29.847202 70.280361 28.820668 70.767885 27.90625 71.21875 C 25.860979 72.227197 24.320562 73 22 73 C 19.679432 73 18.139019 72.227197 16.09375 71.21875 C 14.048481 70.210303 11.521684 69 8 69 A 2.0001995 2.0001995 0 0 0 7.8125 69 A 2.0021961 2.0021961 0 1 0 8 73 C 10.658746 73 12.332742 73.789696 14.34375 74.78125 C 16.354758 75.772804 18.726108 77 22 77 C 25.273888 77 27.645241 75.772804 29.65625 74.78125 C 31.667259 73.789696 33.341254 73 36 73 C 38.658746 73 40.332742 73.789696 42.34375 74.78125 C 44.354758 75.772804 46.726108 77 50 77 C 53.273892 77 55.645242 75.772804 57.65625 74.78125 C 59.667258 73.789696 61.341254 73 64 73 C 66.658746 73 68.332742 73.789696 70.34375 74.78125 C 72.354758 75.772804 74.726108 77 78 77 C 81.273892 77 83.645242 75.772804 85.65625 74.78125 C 87.667258 73.789696 89.341254 73 92 73 A 2.0001995 2.0001995 0 1 0 92 69 C 88.478316 69 85.951519 70.210303 83.90625 71.21875 C 81.860981 72.227197 80.320568 73 78 73 C 75.679432 73 74.139019 72.227197 72.09375 71.21875 C 71.179333 70.767885 70.152798 70.280361 69 69.875 C 69.062325 61.743577 71.806413 54.127579 76.5625 48.25 A 2.0001995 2.0001995 0 0 0 75.625 45.09375 L 68 42.65625 L 68 33 A 2.0001995 2.0001995 0 0 0 65.96875 30.96875 A 2.0001995 2.0001995 0 0 0 64 33 L 64 41.375 L 50.625 37.09375 A 2.0001995 2.0001995 0 0 0 49.8125 37 A 2.0001995 2.0001995 0 0 0 49.375 37.09375 L 36 41.375 L 36 27 L 70 27 A 2.0001995 2.0001995 0 1 0 70 23 L 52 23 L 52 13 A 2.0001995 2.0001995 0 0 0 49.96875 10.96875 A 2.0001995 2.0001995 0 0 0 49.78125 10.96875 z M 50 41.09375 L 71.84375 48.09375 C 67.696338 54.121292 65.243482 61.346937 65.03125 69.0625 C 64.696371 69.03941 64.35452 69 64 69 C 60.478316 69 57.951519 70.210303 55.90625 71.21875 C 53.860981 72.227197 52.320568 73 50 73 C 47.679432 73 46.139019 72.227197 44.09375 71.21875 C 42.048481 70.210303 39.521684 69 36 69 C 35.64548 69 35.303629 69.03941 34.96875 69.0625 C 34.756518 61.346937 32.303662 54.121292 28.15625 48.09375 L 50 41.09375 z M 7.8125 81 A 2.0021961 2.0021961 0 1 0 8 85 C 10.658746 85 12.332742 85.789696 14.34375 86.78125 C 16.354758 87.772804 18.726108 89 22 89 C 25.273888 89 27.645241 87.772804 29.65625 86.78125 C 31.667259 85.789696 33.341254 85 36 85 C 38.658746 85 40.332742 85.789696 42.34375 86.78125 C 44.354758 87.772804 46.726108 89 50 89 C 53.273892 89 55.645242 87.772804 57.65625 86.78125 C 59.667258 85.789696 61.341254 85 64 85 C 66.658746 85 68.332742 85.789696 70.34375 86.78125 C 72.354758 87.772804 74.726108 89 78 89 C 81.273892 89 83.645242 87.772804 85.65625 86.78125 C 87.667258 85.789696 89.341254 85 92 85 A 2.0001995 2.0001995 0 1 0 92 81 C 88.478316 81 85.951519 82.210303 83.90625 83.21875 C 81.860981 84.227197 80.320568 85 78 85 C 75.679432 85 74.139019 84.227197 72.09375 83.21875 C 70.048481 82.210303 67.521684 81 64 81 C 60.478316 81 57.951519 82.210303 55.90625 83.21875 C 53.860981 84.227197 52.320568 85 50 85 C 47.679432 85 46.139019 84.227197 44.09375 83.21875 C 42.048481 82.210303 39.521684 81 36 81 C 32.478316 81 29.951521 82.210303 27.90625 83.21875 C 25.860979 84.227197 24.320562 85 22 85 C 19.679432 85 18.139019 84.227197 16.09375 83.21875 C 14.048481 82.210303 11.521684 81 8 81 A 2.0001995 2.0001995 0 0 0 7.8125 81 z "/><text x="0" y="115" fill="#000000" font-size="5px" font-weight="bold" font-family="'Helvetica Neue', Helvetica, Arial-Unicode, Arial, Sans-serif">Created by romzicon</text><text x="0" y="120" fill="#000000" font-size="5px" font-weight="bold" font-family="'Helvetica Neue', Helvetica, Arial-Unicode, Arial, Sans-serif">from the Noun Project</text></svg>