<svg xmlns="http://www.w3.org/2000/svg" viewBox="0 0 56.61 125" x="0px" y="0px"><title>001Rockettransport</title><g data-name="Capa 10"><path d="M12.76,69l.11,2.29a63.83,63.83,0,0,0,31,0L44,69A55.36,55.36,0,0,1,12.76,69Z"/><path d="M39.48,72.46l-.61.1c1.65,3.52-1.94,8.64-1.94,8.64-.56-4.11-3.06-4.36-5.6-2.9s-1.1,7.17-1.1,7.17c-5.92-.35-4-9.08-6.77-9.93s-3.77,2.73-3.77,2.73c-.79-.92-.85-3.25.12-5.44.85.12-.07,0-1.38-.2-2.78,2.83-4.42,6.38-4.3,9,.28,6.41.85,6.22.85,6.22s1.32-6.78,5.46-5.46,0,7.25.85,10.74A11.4,11.4,0,0,0,27.23,100S24,92.89,29.14,92s4.59,6,4.59,6,3.49-2.54,1.7-8.29,5.37-5.46,5.46-2.07,0,5,0,5C44.44,87.21,46.26,78.61,39.48,72.46Z"/><path d="M12,68.25a113.4,113.4,0,0,1-1.17-15.1c0-2.91.12-5.74.34-8.49A18.06,18.06,0,0,0,0,61.35,39.79,39.79,0,0,0,5.1,81c.72-1.8,1.45-3.54,2.21-5.18A33,33,0,0,1,12,68.25S12,68.29,12,68.25Z"/><circle cx="28.26" cy="36.22" r="0.8"/><circle cx="21.7" cy="29.49" r="0.8"/><circle cx="28.26" cy="22.77" r="0.8"/><circle cx="28.3" cy="29.41" r="5.48"/><circle cx="35.05" cy="29.49" r="0.8"/><path d="M37.12,14.66l.21,0,0-.11A118.32,118.32,0,0,0,30.61,1.35a2.7,2.7,0,0,0-4.67,0A118.08,118.08,0,0,0,19.2,14.67,63.44,63.44,0,0,0,37.12,14.66Z"/><path d="M37.26,15.24a64.26,64.26,0,0,1-18.15,0,94.32,94.32,0,0,0-7.57,37.89c0,5.25,1.17,15.1,1.17,15.1a55.36,55.36,0,0,0,31.33,0,112.1,112.1,0,0,0,1-15.1,94.32,94.32,0,0,0-7.59-37.94S37.26,15.24,37.26,15.24Zm-9,22.2a8,8,0,1,1,8-8A8,8,0,0,1,28.3,37.44Z"/><path d="M45.47,44.67c.22,2.75.33,5.57.33,8.48a112.1,112.1,0,0,1-1,15.1l-.12,0a33.16,33.16,0,0,1,4.63,7.58c.76,1.63,1.49,3.38,2.21,5.18a39.79,39.79,0,0,0,5.1-19.69A18.06,18.06,0,0,0,45.47,44.67Z"/></g><text x="0" y="115" fill="#000000" font-size="5px" font-weight="bold" font-family="'Helvetica Neue', Helvetica, Arial-Unicode, Arial, Sans-serif">Created by Gisela Leyva</text><text x="0" y="120" fill="#000000" font-size="5px" font-weight="bold" font-family="'Helvetica Neue', Helvetica, Arial-Unicode, Arial, Sans-serif">from the Noun Project</text></svg>