<svg xmlns="http://www.w3.org/2000/svg" xmlns:xlink="http://www.w3.org/1999/xlink" version="1.1" x="0px" y="0px" viewBox="0 0 100 125" enable-background="new 0 0 100 100" xml:space="preserve"><path d="M81,38H70.2c-0.11,0-0.2-0.09-0.2-0.2v-8.3c0-0.276-0.224-0.5-0.5-0.5H42.2c-0.11,0-0.2,0.09-0.2,0.2l0,20.63  c0,1.624-1.216,3.081-2.839,3.165C37.431,53.086,36,51.71,36,50V29.2c0-0.11-0.09-0.2-0.2-0.2h-9.3c-0.276,0-0.5,0.224-0.5,0.5V79  c0,3.314,2.686,6,6,6h32c3.314,0,6-2.686,6-6v-7.8c0-0.11,0.09-0.2,0.2-0.2H81c2.209,0,4-1.791,4-4V42C85,39.791,83.209,38,81,38z   M79,64c0,0.552-0.448,1-1,1h-7.8c-0.11,0-0.2-0.09-0.2-0.2V44.2c0-0.11,0.09-0.2,0.2-0.2H78c0.552,0,1,0.448,1,1V64z"/><path d="M26.5,25c-0.276,0-0.5-0.224-0.5-0.5V23c0-3.48,2.344-5.732,4.974-5.976c2.47-0.229,4.643,1.176,5.561,3.259  c0.176,0.4,0.74,0.438,0.914,0.036C38.293,18.367,40.237,17,42.5,17c2.263,0,4.207,1.367,5.051,3.32  c0.166,0.384,0.731,0.384,0.898,0C49.293,18.367,51.237,17,53.5,17c2.263,0,4.207,1.367,5.051,3.32  c0.174,0.402,0.737,0.364,0.914-0.036c0.918-2.083,3.091-3.488,5.561-3.259C67.665,17.269,70,19.531,70,23v1.5  c0,0.276-0.224,0.5-0.5,0.5H26.5z"/><text x="0" y="115" fill="#000000" font-size="5px" font-weight="bold" font-family="'Helvetica Neue', Helvetica, Arial-Unicode, Arial, Sans-serif">Created by Ayub Irawan</text><text x="0" y="120" fill="#000000" font-size="5px" font-weight="bold" font-family="'Helvetica Neue', Helvetica, Arial-Unicode, Arial, Sans-serif">from the Noun Project</text></svg>