<svg xmlns="http://www.w3.org/2000/svg" xmlns:xlink="http://www.w3.org/1999/xlink" version="1.1" x="0px" y="0px" viewBox="0 0 100 125" style="enable-background:new 0 0 100 100;" xml:space="preserve"><path d="M51.1,20.4c-0.7-0.5-1.6-0.5-2.3,0C48,21,27.5,35.4,27.5,57.5C27.5,69.9,37.6,80,50,80s22.5-10.1,22.5-22.5  C72.5,35.4,52,21,51.1,20.4z M50,76c-10.2,0-18.5-8.3-18.5-18.5c0-17.2,14.3-29.7,18.5-33c4.2,3.3,18.5,15.9,18.5,33  C68.5,67.7,60.2,76,50,76z M52,69.3c0,1.1-0.9,2-2,2c-7.6,0-13.7-6.2-13.7-13.7c0-1.1,0.9-2,2-2s2,0.9,2,2c0,5.4,4.4,9.7,9.7,9.7  C51.1,67.3,52,68.2,52,69.3z"/><text x="0" y="115" fill="#000000" font-size="5px" font-weight="bold" font-family="'Helvetica Neue', Helvetica, Arial-Unicode, Arial, Sans-serif">Created by Mello</text><text x="0" y="120" fill="#000000" font-size="5px" font-weight="bold" font-family="'Helvetica Neue', Helvetica, Arial-Unicode, Arial, Sans-serif">from the Noun Project</text></svg>