<svg xmlns="http://www.w3.org/2000/svg" xmlns:xlink="http://www.w3.org/1999/xlink" version="1.1" x="0px" y="0px" viewBox="0 0 100 125" enable-background="new 0 0 100 100" xml:space="preserve"><g><path fill-rule="evenodd" clip-rule="evenodd" d="M76.844,59.064C80.486,60.906,83,64.688,83,69.029l0,0   c0,6.136-5.021,11.156-11.156,11.156H28.156C22.02,80.186,17,75.165,17,69.029l0,0c0-4.341,2.513-8.123,6.155-9.965   c0.499-0.252,0.837-0.649,1.006-1.183c0.166-0.523,0.123-1.033-0.127-1.518c-1.539-2.989-1.666-6.18-0.369-9.281   c1.297-3.103,3.655-5.253,6.864-6.257c11.129-3.483,25.072-4.978,24.115-21.012c6.557,3.375,10.699,10.412,10.175,18.03   c-0.038,0.556,0.129,1.048,0.499,1.465c0.369,0.417,0.838,0.644,1.395,0.672c5.865,0.309,10.568,5.202,10.568,11.142l0,0   c0,1.88-0.471,3.654-1.301,5.213c-0.263,0.493-0.311,1.013-0.142,1.546C76.007,58.415,76.346,58.813,76.844,59.064z"/></g><text x="0" y="115" fill="#000000" font-size="5px" font-weight="bold" font-family="'Helvetica Neue', Helvetica, Arial-Unicode, Arial, Sans-serif">Created by Nikita Kozin</text><text x="0" y="120" fill="#000000" font-size="5px" font-weight="bold" font-family="'Helvetica Neue', Helvetica, Arial-Unicode, Arial, Sans-serif">from the Noun Project</text></svg>