<svg xmlns="http://www.w3.org/2000/svg" xmlns:xlink="http://www.w3.org/1999/xlink" version="1.1" x="0px" y="0px" viewBox="0 0 100 100" enable-background="new 0 0 100 100" xml:space="preserve"><g><path d="M66.448,7.705c0,0.914,0.743,1.657,1.657,1.657c0.215,0,0.421-0.044,0.61-0.12c-0.602-0.155-1.048-0.695-1.048-1.344   c0-0.768,0.624-1.392,1.393-1.392c0.07,0,0.139,0.01,0.206,0.021c-0.299-0.295-0.709-0.478-1.161-0.478   C67.191,6.049,66.448,6.792,66.448,7.705z"></path><path d="M87.147,8.876c-2.378-0.761-4.534-1.363-6.436-1.896c-3.369-0.942-6.029-1.687-8.027-2.762   c-1.625-0.875-4.42-1.44-7.122-1.44c-2.413,0-5.882,0.423-8.711,2.441c-3.616,2.579-6.702,6.519-8.744,9.126   c-0.853,1.089-1.527,1.949-2.035,2.462c-0.013,0.015-2.93,3.386-8.143,6.586c-5.455,3.348-21.596,25.813-21.915,48.886   c0.998-1.612,2.948-5.164,4.289-10.191c1.496-5.607,4.534-9.194,10.049-15.706c1.569-1.854,3.348-3.955,5.342-6.401   c3.202-3.927,4.458-6.972,3.634-8.806c-0.799-1.781-3.353-1.91-3.378-1.911c-0.192-0.008-0.342-0.17-0.333-0.362   c0.008-0.193,0.196-0.354,0.361-0.334c0.123,0.005,3.005,0.145,3.985,2.318c0.956,2.121-0.299,5.329-3.729,9.536   c-1.999,2.451-3.779,4.554-5.351,6.41c-5.45,6.436-8.452,9.98-9.906,15.436c-1.851,6.941-4.768,11.022-5.024,11.373   c-0.165,0.354-3.164,6.709-8.603,14.135c-0.984,1.343-1.293,2.399-0.918,3.141c0.541,1.065,2.536,1.628,5.771,1.628   c4.134,0,9.003-0.912,11-1.394l0.384-0.094c0.761-4.786-0.014-10.586-0.024-10.655c-1.54-5.198-0.061-12.745,0.004-13.063   c0.038-0.189,0.225-0.313,0.41-0.273c0.189,0.038,0.311,0.221,0.274,0.409c-0.016,0.077-1.509,7.698-0.008,12.781   c0.048,0.328,0.788,5.855,0.085,10.617h0.004l-0.045,0.264c-0.091,0.568-0.204,1.123-0.341,1.656   c-0.007,0.026-0.014,0.052-0.021,0.078c-0.047,0.178-0.096,0.354-0.149,0.526c-0.012,0.038-0.023,0.078-0.035,0.116   c-0.061,0.192-0.124,0.382-0.193,0.564c0,0.001,0,0.001,0,0.001c0,0.003-0.008,0.041-0.03,0.103   c-0.053,0.168-0.166,0.377-0.349,0.576c-0.012,0.013-0.023,0.026-0.036,0.039c-0.036,0.035-0.073,0.07-0.114,0.104   c-0.036,0.032-0.075,0.062-0.116,0.091c-0.033,0.021-0.065,0.045-0.1,0.066c-0.02,0.012-0.036,0.025-0.057,0.037   c-0.021,0.011-0.044,0.016-0.065,0.024c-0.095,0.049-0.199,0.088-0.312,0.12c-0.042,0.012-0.083,0.027-0.127,0.037   c-0.141,0.029-0.291,0.049-0.457,0.049c-0.003,0-0.007-0.001-0.011-0.001c-0.15-0.001-0.311-0.022-0.475-0.05   c-0.043-0.008-0.08-0.007-0.122-0.014c-0.21-0.045-0.431-0.106-0.663-0.191c-0.103-0.038-0.202-0.065-0.295-0.082   c-0.038-0.009-0.071-0.009-0.107-0.012c-0.055-0.007-0.11-0.014-0.162-0.014c-0.198,0.003-0.368,0.063-0.513,0.164   c-0.099,0.07-0.188,0.159-0.266,0.263c-0.014,0.019-0.027,0.038-0.04,0.057c-0.157,0.227-0.272,0.504-0.353,0.782   c-0.006,0.02-0.011,0.039-0.016,0.06c-0.033,0.119-0.059,0.236-0.081,0.349c-0.002,0.016-0.007,0.034-0.01,0.05   c0.358-0.124,0.859-0.244,1.461-0.244l0.076,0.002c0.003,0,0.007,0,0.01,0l0.102,0.001l0.085,0.057c0,0,0.461,0.591,1.898,0.685   c0.296,0.021,0.617,0.035,0.999,0.035c0.924,0,1.373-0.426,1.709-0.514c0.105-0.027,0.205-0.05,0.305-0.069   c0.033-0.007,0.068-0.014,0.101-0.019c0.118-0.019,0.242-0.03,0.375-0.032c0.014,0,0.022-0.004,0.037-0.004   c0.018,0,0.04,0.004,0.058,0.004c0.069,0.001,0.146,0.005,0.223,0.011c0.037,0.004,0.074,0.006,0.111,0.01   c0.088,0.011,0.186,0.025,0.287,0.042c0.04,0.007,0.076,0.012,0.117,0.019c0.111,0.021,0.237,0.048,0.367,0.076   c0.041,0.009,0.077,0.015,0.12,0.025c0.175,0.041,0.367,0.088,0.583,0.146c0.203,0.054,0.381,0.096,0.548,0.134   c0.104,0.023,0.197,0.041,0.292,0.059c0.051,0.012,0.106,0.021,0.155,0.03c0.102,0.018,0.196,0.03,0.286,0.041   c0.031,0.004,0.065,0.007,0.094,0.011c0.078,0.008,0.149,0.01,0.217,0.013c0.037,0.001,0.077,0.002,0.111,0.001   c0.047-0.001,0.087-0.006,0.127-0.009c0.049-0.006,0.099-0.011,0.141-0.02c0.014-0.004,0.026-0.008,0.04-0.012   c0.051-0.013,0.101-0.028,0.143-0.048c0.007-0.004,0.015-0.008,0.022-0.013c0.042-0.019,0.082-0.04,0.121-0.064   c0.043-0.027,0.086-0.058,0.133-0.091c0.167-0.119,0.375-0.266,0.704-0.369c0.221-0.069,0.45-0.128,0.686-0.168   c0.027-0.006,0.054-0.009,0.081-0.013c0.163-0.025,0.329-0.037,0.498-0.035c0.058,0,0.117,0.003,0.173,0.008   c0.133,0.011,0.269,0.031,0.405,0.065c0.057,0.014,0.114,0.032,0.17,0.051c0.136,0.046,0.273,0.101,0.411,0.173   c0.007,0.004,0.015,0.006,0.023,0.011c-0.032-0.149-0.077-0.311-0.132-0.475c-0.016-0.05-0.029-0.096-0.048-0.146   c-0.001-0.003-0.002-0.006-0.003-0.008c-0.121-0.32-0.292-0.643-0.538-0.912c-0.036-0.039-0.079-0.071-0.118-0.108   c-0.051-0.047-0.098-0.099-0.155-0.141c-0.2-0.151-0.437-0.269-0.716-0.334c-0.117-0.027-0.225-0.047-0.327-0.061   c-0.016-0.002-0.03-0.003-0.044-0.006c-0.09-0.011-0.174-0.018-0.251-0.019c-0.009,0-0.018-0.001-0.027-0.001   c-0.075,0.001-0.142,0.006-0.201,0.016c-0.004,0-0.007,0.002-0.011,0.002c-0.052,0.01-0.098,0.021-0.14,0.036   c-0.019,0.006-0.035,0.013-0.053,0.02c-0.029,0.012-0.058,0.023-0.086,0.037c-0.014,0.008-0.027,0.014-0.04,0.021   c-0.038,0.02-0.075,0.041-0.114,0.063c-0.053,0.032-0.112,0.064-0.175,0.096c-0.006,0.003-0.013,0.006-0.02,0.01   c-0.046,0.022-0.096,0.043-0.15,0.062c-0.026,0.009-0.054,0.016-0.081,0.023c-0.034,0.009-0.068,0.018-0.106,0.024   c-0.045,0.009-0.096,0.012-0.146,0.014c-0.021,0.002-0.039,0.006-0.061,0.006c-0.006,0-0.013-0.002-0.02-0.002   c-0.066-0.001-0.139-0.009-0.214-0.021c-0.023-0.004-0.045-0.005-0.069-0.009c-0.067-0.013-0.143-0.034-0.219-0.058   c-0.038-0.01-0.072-0.017-0.11-0.029c-0.021-0.007-0.047-0.02-0.068-0.026c-0.219-0.077-0.462-0.184-0.748-0.331   c-0.103-0.053-0.198-0.119-0.29-0.19c-0.027-0.021-0.053-0.044-0.079-0.065c-0.074-0.063-0.144-0.132-0.212-0.205   c-0.02-0.022-0.04-0.041-0.059-0.063c-0.081-0.095-0.157-0.198-0.229-0.308c-0.023-0.035-0.045-0.072-0.067-0.108   c-0.061-0.101-0.12-0.205-0.175-0.314c-0.014-0.027-0.028-0.052-0.041-0.079c-0.069-0.144-0.131-0.294-0.19-0.449   c-0.012-0.031-0.023-0.063-0.036-0.096c-1.005-2.763-0.7-7.313-0.696-7.374c0.067-0.936,0.476-3.801,0.493-3.922l0.046-0.129   c0.016-0.026,1.555-2.676,1.555-8.019c0-0.192,0.155-0.348,0.348-0.348s0.349,0.155,0.349,0.348c0,5.159-1.366,7.86-1.616,8.312   c-0.063,0.441-0.418,2.973-0.478,3.809c-0.085,1.198-0.082,3.098,0.147,4.817c2.155-1.013,3.186-2.762,4.92-8.092   c2.488-7.641,4.585-8.214,4.816-8.253l0.044-0.008l0.045,0.004c0.007,0,0.687,0.058,1.708,0.058c1.647,0,4.05-0.146,6.142-0.843   l0.554-0.185l-0.101,0.575c-0.017,0.1-0.431,2.435-1.151,4.117c-0.675,1.575-0.168,4.116,1.85,5.643   c2.202,1.665,5.289,6.377,6.378,8.413c0.36,0.674,0.365,1.37,0.012,1.958c-0.382,0.637-1.144,1.049-1.941,1.049   c-0.612,0.001-1.185-0.241-1.613-0.684c-0.506-0.523-1.216-0.345-1.835,0.354c-0.479,0.543-0.79,1.263-0.865,1.96   c0.332-0.226,0.787-0.493,1.311-0.699l0.36-0.142l0.103,0.375c0.011,0.038,0.293,0.993,1.234,0.993c0.121,0,0.25-0.015,0.383-0.045   c0.627-0.14,1.026-0.306,1.348-0.44c0.493-0.206,0.917-0.35,1.526-0.172c0.284,0.083,0.536,0.239,0.779,0.392   c0.347,0.216,0.674,0.42,1.083,0.42c0.367,0,0.774-0.162,1.246-0.495c0.48-0.337,0.869-0.495,1.227-0.495   c0.435,0,0.749,0.231,1.053,0.455c0.42,0.31,0.895,0.66,1.902,0.66c1.266,0,1.43-0.165,1.619-0.356   c0.25-0.251,0.518-0.471,1.283-0.616c0.884-0.174,1.822,0.019,2.438,0.266c-0.315-0.613-0.841-1.351-1.586-1.45   c-0.628-0.084-0.898,0.038-1.174,0.168c-0.336,0.161-0.79,0.302-1.494,0.019c-1.099-0.446-1.748-1.254-2.463-0.776   c-0.2,0.133-0.391,0.197-0.582,0.197c-0.658,0-0.789,0.076-1.716-1.453l-0.231-0.382c-0.027-0.036-3.854-5.479-7.6-9.81   l-0.091-0.106l0.007-0.141c0.013-0.251,0.352-6.196,3.458-10.855c0.744-1.114,1.606-2.262,2.52-3.478   c2.949-3.925,6.291-8.375,8.037-14.686c0.913-3.3,2.142-5.325,3.225-7.112c1.733-2.857,3.231-5.326,3.178-12.037   c-0.094-11.639,2.453-14.984,7.505-17.378c4.019-1.906,12.873-2.324,16.926-2.414c-0.114-0.055-0.229-0.11-0.361-0.167   c-0.329-0.143-0.688-0.333-1.104-0.49c-0.418-0.156-0.871-0.326-1.35-0.505c-0.474-0.198-1.005-0.318-1.541-0.484   c-0.541-0.15-1.092-0.337-1.668-0.47c-0.58-0.123-1.168-0.248-1.756-0.372c-0.591-0.117-1.176-0.275-1.767-0.333   c-0.589-0.079-1.17-0.157-1.73-0.232c-0.563-0.074-1.105-0.146-1.62-0.215c-0.52-0.031-1.011-0.059-1.463-0.086   c-1.817-0.106-3.028-0.177-3.028-0.177s1.214-0.016,3.035-0.041c0.457-0.006,0.952-0.013,1.475-0.02   c0.521,0.032,1.073,0.065,1.643,0.099c0.57,0.035,1.16,0.071,1.76,0.109c0.603,0.016,1.204,0.133,1.812,0.208   c0.605,0.084,1.212,0.168,1.81,0.25c0.597,0.093,1.173,0.243,1.738,0.356c0.562,0.131,1.115,0.216,1.619,0.384   c0.51,0.15,0.992,0.292,1.438,0.423c0.446,0.133,0.842,0.305,1.2,0.432c0.355,0.125,0.669,0.256,0.928,0.382   c0.012,0.005,0.019,0.009,0.029,0.014C92.929,12.217,91.122,10.147,87.147,8.876z M68.105,10.756c-1.683,0-3.051-1.369-3.051-3.051   s1.368-3.05,3.051-3.05c1.682,0,3.05,1.368,3.05,3.05S69.787,10.756,68.105,10.756z"></path></g></svg>