<svg xmlns="http://www.w3.org/2000/svg" xmlns:xlink="http://www.w3.org/1999/xlink" version="1.1" x="0px" y="0px" viewBox="0 0 100 125" enable-background="new 0 0 100 100" xml:space="preserve"><g><ellipse fill="#000000" cx="37.248" cy="21.858" rx="8.724" ry="3.028"/></g><g><line fill="#000000" x1="15.678" y1="42.468" x2="15.678" y2="58.104"/><path fill="#000000" d="M15.678,60.338c-1.233,0-2.233-1-2.233-2.233V42.468c0-1.234,1-2.234,2.233-2.234   c1.234,0,2.234,1,2.234,2.234v15.637C17.912,59.338,16.913,60.338,15.678,60.338z"/></g><g><line fill="#000000" x1="15.678" y1="68.333" x2="15.678" y2="72.4"/><path fill="#000000" d="M15.678,74.634c-1.233,0-2.233-1-2.233-2.233v-4.067c0-1.232,1-2.233,2.233-2.233   c1.234,0,2.234,1.001,2.234,2.233V72.4C17.912,73.634,16.913,74.634,15.678,74.634z"/></g><g><path fill="none" d="M72.034,79.333c-0.013,1.076-0.335,2.153-0.954,3.204h20.619l-4.819-8.634c-0.378-0.677-0.378-1.5,0-2.178   l4.598-8.232l-4.598-8.231c-0.378-0.678-0.378-1.501,0-2.178l6.016-10.772L86.88,31.537c-0.378-0.676-0.378-1.5,0-2.177   l4.819-8.634H71.98c0.032,0.247,0.054,0.494,0.054,0.741V79.333z"/><path fill="#000000" d="M91.388,72.814l4.597-8.231c0.378-0.679,0.378-1.502,0-2.179l-4.597-8.231L97.402,43.4   c0.378-0.676,0.378-1.5,0-2.177l-6.015-10.774l6.065-10.868c0.386-0.691,0.376-1.536-0.023-2.219   c-0.402-0.683-1.135-1.103-1.927-1.103h-25.95c-4.586-4.629-15.489-8.32-32.306-8.32c-22.756,0-34.701,6.758-34.785,13.457v0.454   c0,0.003,0,0.006,0,0.009s0,0.006,0,0.009l0,57.4c0,6.723,11.949,13.528,34.786,13.528c13.607,0,23.346-2.416,28.998-5.791h29.259   c0.792,0,1.524-0.421,1.927-1.104c0.399-0.683,0.409-1.528,0.023-2.219L91.388,72.814z M67.565,70.012v9.33   c-0.042,0.994-0.933,2.104-2.562,3.195c-2.544,1.705-6.898,3.365-12.702,4.468c-4.283,0.813-9.35,1.324-15.055,1.324   c-18.357,0-30.126-5.281-30.316-8.972v-0.003v-3.457v-0.003v-1.887v-0.002l0-45.272c4.604,3.265,12.738,5.805,24.212,6.475   c1.436,0.083,2.926,0.137,4.467,0.159c0.544,0.008,1.082,0.02,1.638,0.02c14.74,0,24.935-2.836,30.319-6.654V70.012z    M67.565,21.878c-0.042,3.695-11.843,9.042-30.319,9.042c-0.552,0-1.098-0.005-1.638-0.015c-1.541-0.027-3.028-0.093-4.467-0.19   C16.214,29.708,6.967,25.147,6.93,21.878v-0.04c0.042-3.694,11.842-9.042,30.317-9.042c9.79,0,17.704,1.501,22.989,3.463   c3.726,1.382,6.142,2.993,6.989,4.467c0.22,0.382,0.337,0.755,0.341,1.112V21.878z M71.08,82.537   c0.619-1.051,0.941-2.128,0.954-3.204V21.467c0-0.247-0.021-0.494-0.054-0.741h19.719L86.88,29.36   c-0.378,0.677-0.378,1.501,0,2.177l6.016,10.775L86.88,53.084c-0.378,0.677-0.378,1.5,0,2.178l4.598,8.231l-4.598,8.232   c-0.378,0.678-0.378,1.501,0,2.178l4.819,8.634H71.08z"/></g><text x="0" y="115" fill="#000000" font-size="5px" font-weight="bold" font-family="'Helvetica Neue', Helvetica, Arial-Unicode, Arial, Sans-serif">Created by Gigi Muraro</text><text x="0" y="120" fill="#000000" font-size="5px" font-weight="bold" font-family="'Helvetica Neue', Helvetica, Arial-Unicode, Arial, Sans-serif">from the Noun Project</text></svg>