<svg xmlns:dc="http://purl.org/dc/elements/1.1/" xmlns:cc="http://creativecommons.org/ns#" xmlns:rdf="http://www.w3.org/1999/02/22-rdf-syntax-ns#" xmlns:svg="http://www.w3.org/2000/svg" xmlns="http://www.w3.org/2000/svg" xmlns:sodipodi="http://sodipodi.sourceforge.net/DTD/sodipodi-0.dtd" xmlns:inkscape="http://www.inkscape.org/namespaces/inkscape" viewBox="0 0 100 125" version="1.1" x="0px" y="0px"><g transform="translate(0,-952.36216)"><path style="color:#000000;font-style:normal;font-variant:normal;font-weight:normal;font-stretch:normal;font-size:medium;line-height:normal;font-family:sans-serif;text-indent:0;text-align:start;text-decoration:none;text-decoration-line:none;text-decoration-style:solid;text-decoration-color:#000000;letter-spacing:normal;word-spacing:normal;text-transform:none;direction:ltr;block-progression:tb;writing-mode:lr-tb;baseline-shift:baseline;text-anchor:start;white-space:normal;clip-rule:nonzero;display:inline;overflow:visible;visibility:visible;opacity:1;isolation:auto;mix-blend-mode:normal;color-interpolation:sRGB;color-interpolation-filters:linearRGB;solid-color:#000000;solid-opacity:1;fill:#000000;fill-opacity:1;fill-rule:evenodd;stroke:none;stroke-width:200;stroke-linecap:round;stroke-linejoin:miter;stroke-miterlimit:4;stroke-dasharray:none;stroke-dashoffset:0;stroke-opacity:1;color-rendering:auto;image-rendering:auto;shape-rendering:auto;text-rendering:auto;enable-background:accumulate" d="m 58.939631,968.39764 c -0.075,-7e-4 -0.1496,-7e-4 -0.2243,0 l 0,0 c -1.5375,0.016 -3.0617,0.3514 -4.4821,0.9913 -2.5252,1.1376 -4.7812,3.4569 -5.4665,6.5886 -0.4496,2.0546 -0.1408,4.0757 0.9108,5.9349 1.0517,1.8591 3.3642,3.6026 6.0631,3.4856 a 3.4372392,3.4372392 0 0 0 -0.081,-6.8722 c -0.1336,-0.2385 -0.2175,-0.8983 -0.178,-1.0789 0.1898,-0.8673 0.6743,-1.3851 1.5749,-1.7907 0.9005,-0.4057 2.1582,-0.4805 3.1014,-0.1736 3.2427,1.0548 4.6342,5.1743 3.3818,8.4442 -1.3186,3.4427 -4.7365,5.3713 -8.4273,5.3742 l -39.7516,0 a 3.4372392,3.4372392 0 1 0 0,6.8738 l 39.7556,0 0,0 c 6.1819,0 12.4133,-3.4506 14.8411,-9.7895 2.5523,-6.664 -0.3044,-15.0419 -7.6746,-17.4393 -1.0961,-0.3566 -2.2228,-0.5375 -3.3446,-0.5484 z m 24.127,9.6233 c -0.075,-6e-4 -0.1495,-6e-4 -0.2242,0 l 0,0 c -1.5375,0.016 -3.0618,0.3514 -4.4822,0.9913 -2.5252,1.1376 -4.7812,3.4569 -5.4665,6.5886 -0.4496,2.0546 -0.1408,4.0758 0.9109,5.9349 1.0517,1.8591 3.3642,3.6026 6.0631,3.4856 a 3.4372392,3.4372392 0 0 0 -0.081,-6.8722 c -0.1336,-0.2385 -0.2176,-0.8983 -0.1781,-1.0789 0.1898,-0.8672 0.6744,-1.3851 1.5749,-1.7907 0.9006,-0.4057 2.1582,-0.4805 3.1014,-0.1736 3.2427,1.0548 4.6342,5.1743 3.3818,8.4442 -1.3186,3.4427 -4.7365,5.3713 -8.4273,5.3742 l -70.7524002,0 a 3.4372392,3.4372392 0 1 0 0,6.87376 l 70.7564002,0 0,0 c 6.1819,0 12.4133,-3.4506 14.8411,-9.78946 2.5523,-6.664 -0.3044,-15.0419 -7.6746,-17.4393 -1.0961,-0.3566 -2.2227,-0.5375 -3.3446,-0.5484 z m -67.7058,30.52736 a 3.4372392,3.4372392 0 1 0 0,6.8738 l 51.8151,0 c 3.6908,0 7.1087,1.9315 8.4273,5.3743 1.2524,3.2698 -0.1391,7.3894 -3.3818,8.4442 -0.9432,0.3068 -2.2008,0.2321 -3.1014,-0.1736 -0.9005,-0.4057 -1.3851,-0.9235 -1.5749,-1.7908 -0.04,-0.1809 0.045,-0.8439 0.1788,-1.081 4e-4,-4e-4 4e-4,-7e-4 5e-4,0 a 3.4372392,3.4372392 0 0 0 0.08,-6.8689 c -2.6989,-0.117 -5.0114,1.6265 -6.0631,3.4856 -1.0517,1.8591 -1.3605,3.8802 -0.9109,5.9348 0.6853,3.1317 2.9413,5.451 5.4665,6.5886 2.5252,1.1376 5.3785,1.3123 8.0511,0.4429 7.3701,-2.3974 10.2268,-10.7752 7.6745,-17.4392 -2.4278,-6.3389 -8.6592,-9.7848 -14.8411,-9.7896 l 0,0 -51.8191,0 z"/></g><text x="0" y="115" fill="#000000" font-size="5px" font-weight="bold" font-family="'Helvetica Neue', Helvetica, Arial-Unicode, Arial, Sans-serif">Created by Andrew Doane</text><text x="0" y="120" fill="#000000" font-size="5px" font-weight="bold" font-family="'Helvetica Neue', Helvetica, Arial-Unicode, Arial, Sans-serif">from the Noun Project</text></svg>