<svg xmlns="http://www.w3.org/2000/svg" data-name="Layer 2" viewBox="0 0 100 125" x="0px" y="0px"><defs><style>.cls-1{fill:none;}.cls-2{fill:#ff0;}</style></defs><title>sparrow</title><path d="M24.18,23.55a1.83,1.83,0,0,0-1.84,1.83,0.09,0.09,0,0,0,0,0,2,2,0,0,1,1.88-1.87h0Z"/><path d="M90.84,39H71.09A19.58,19.58,0,0,0,73,32.62L37.28,28.69C29.87,9.11,15.59,21.58,16,22c-6.21.85-8.75,3.53-8.75,3.53C8.19,28,15,31.61,15,31.61l0,0s5,21.85,5,21.81C20.71,55.46,23,61.49,28.3,65L21.91,69.2,17,68.09a2.36,2.36,0,0,0-1,.07l-4.54,3a0.61,0.61,0,0,0-.17.83,1.1,1.1,0,0,0,.84.18l4-2.68c0.15,0.06,1.07.23,1.11,0.24l-3.56,2.35a0.61,0.61,0,0,0-.17.84,1.11,1.11,0,0,0,.83.16l4.54-3s0.89,0.31.94,0.33L16,73a0.6,0.6,0,0,0-.17.83,1.1,1.1,0,0,0,.84.18l4.53-3a13,13,0,0,1,1.55.34l2.81,0.77a0.41,0.41,0,0,0,.16,0,0.6,0.6,0,0,0,.16-1.18l-1.78-.49,6.42-4.23a16.53,16.53,0,0,0,6.68,1.35,21.66,21.66,0,0,0,4-.38C44.37,66.59,49.34,65,49.3,65h0a5.21,5.21,0,0,1,.4,1.33,5.46,5.46,0,0,1-.49,1.29h0L42,72.39s-5-1-5-1a2.37,2.37,0,0,0-1,.07l-4.54,3a0.62,0.62,0,0,0-.17.84,1.08,1.08,0,0,0,.84.14l4-2.66s0.77,0.26,1.08.34l-3.45,2.27a0.61,0.61,0,0,0-.18.84,1,1,0,0,0,.81.17l4.36-2.91c0.32,0.08,1.08.23,1.12,0.24L36,76.23a0.61,0.61,0,0,0-.17.84,1.09,1.09,0,0,0,.84.17l4.53-3a6.66,6.66,0,0,1,1.55.33l2.81,0.77a0.41,0.41,0,0,0,.16,0,0.62,0.62,0,0,0,.58-0.45,0.6,0.6,0,0,0-.42-0.74l-2.13-.68S50.66,69,50.69,69s4.57-2,4.57-3.18A5.43,5.43,0,0,0,54,62.59c5.88-3.66,8.53-8.56,11.11-13.36,0.06-.11,20.58,3.07,23,2.25,3.5-1.17,5.16-6,6.1-8.24C96.34,38.25,90.84,39,90.84,39ZM24.18,23.55h0a1.83,1.83,0,1,1-1.88,1.87,0.09,0.09,0,0,1,0,0A1.83,1.83,0,0,1,24.18,23.55Zm40,25.2C60.35,55.93,56.35,63.34,41,66.2c-6.71,1.25-12.14-.67-16.13-5.7A23.24,23.24,0,0,1,21,52.86C25.81,49.22,22.24,37,22.24,37c-4.3-.95-5.42-7.53-5.42-7.53l2.72-2c6.46,5,9.38,0,9.38,0,4.3,5.28-3.55,9.51-3.55,9.51l3,0.55s0,17.3,22.25,14.18a33.66,33.66,0,0,0,11.23-3.42l2.37,0.42S64.22,48.74,64.21,48.75Z"/><line class="cls-1" x1="50.74" y1="74.39" x2="44.48" y2="73.46"/><path class="cls-2" d="M24.23,23.56a2,2,0,0,0-1.88,1.87,0.09,0.09,0,0,1,0,0,1.83,1.83,0,0,1,1.84-1.83h0Z"/><text x="0" y="115" fill="#000000" font-size="5px" font-weight="bold" font-family="'Helvetica Neue', Helvetica, Arial-Unicode, Arial, Sans-serif">Created by Michelle</text><text x="0" y="120" fill="#000000" font-size="5px" font-weight="bold" font-family="'Helvetica Neue', Helvetica, Arial-Unicode, Arial, Sans-serif">from the Noun Project</text></svg>