<svg xmlns="http://www.w3.org/2000/svg" xmlns:xlink="http://www.w3.org/1999/xlink" version="1.1" x="0px" y="0px" viewBox="0 0 100 125" style="enable-background:new 0 0 100 100;" xml:space="preserve"><style type="text/css">
	.st0{fill:none;stroke:#000000;stroke-width:2;stroke-linecap:round;stroke-linejoin:round;stroke-miterlimit:10;}
	.st1{fill:none;stroke:#000000;stroke-linecap:round;stroke-linejoin:round;stroke-miterlimit:10;}
</style><rect x="23.2" y="43.3" class="st0" width="61" height="33.9"/><path class="st0" d="M69.7,32.3l14.5,11L69.7,32.3z"/><line class="st0" x1="23.2" y1="43.3" x2="59.4" y2="34.8"/><circle class="st0" cx="64.3" cy="32.4" r="5.4"/><path class="st0" d="M64.3,27L64.3,27c1.5-3.8,4.6-6.7,8.5-7.9l1.1-0.3"/><path class="st0" d="M41.8,51.6c0,6-4.8,10.8-10.8,10.8c-3.1,0-5.9-1.3-7.8-3.4"/><path class="st0" d="M63.4,51.6c0,6-4.8,10.8-10.8,10.8s-10.8-4.8-10.8-10.8"/><path class="st0" d="M63.4,51.6c0,6,4.8,10.8,10.8,10.8c4.3,0,8-2.5,9.7-6.1"/><path class="st1" d="M80.8,56.5c0.5-0.5,1-1.2,1.3-1.8"/><path class="st1" d="M66.2,50.7c0,4.6,3.8,8.4,8.4,8.4c1.5,0,2.9-0.4,4.2-1.1"/><text x="0" y="115" fill="#000000" font-size="5px" font-weight="bold" font-family="'Helvetica Neue', Helvetica, Arial-Unicode, Arial, Sans-serif">Created by Nook Fulloption</text><text x="0" y="120" fill="#000000" font-size="5px" font-weight="bold" font-family="'Helvetica Neue', Helvetica, Arial-Unicode, Arial, Sans-serif">from the Noun Project</text></svg>