<svg xmlns="http://www.w3.org/2000/svg" xmlns:xlink="http://www.w3.org/1999/xlink" viewBox="0 0 100 125" version="1.1" x="0px" y="0px"><title>Orange</title><desc>Created with Sketch.</desc><g stroke="none" stroke-width="1" fill="none" fill-rule="evenodd"><g fill="#000000"><g transform="translate(-1.000000, 0.000000)"><path d="M50.8939024,95.0385366 C26.0719512,95.0385366 5.87682927,74.8458537 5.87682927,50.0239024 C5.87682927,37.28 11.15,27.1019512 21.152439,20.4360976 C24.0939024,24.6117073 27.5621951,27.384878 31.5646341,28.6117073 C33.247561,29.1287805 34.8963415,29.3385366 36.4743902,29.3385366 C40.9939024,29.3385366 44.9012195,27.5970732 47.252439,26.2458537 C47.0256098,30.2653659 47.3963415,33.677561 47.8109756,36.0263415 C41.3280488,35.2385366 38.6695122,32.1507317 38.5597561,32.0214634 C37.7256098,30.9629268 36.1890244,30.782439 35.1353659,31.6214634 C34.0768293,32.4580488 33.8987805,33.9921951 34.7353659,35.0458537 C34.9304878,35.2946341 39.6426829,41.0873171 50.8939024,41.0873171 L50.8939024,41.0873171 C62.145122,41.0873171 66.8573171,35.2946341 67.052439,35.0458537 C67.8817073,34.0019512 67.7036585,32.4946341 66.6670732,31.6531707 C65.6304878,30.8117073 64.1012195,30.9726829 63.245122,31.9970732 C63.1134146,32.1556098 60.1012195,35.5604878 52.7939024,36.0995122 C52.0060976,32.1336585 50.8426829,22.277561 55.9865854,12.6190244 C80.4134146,14.3482927 95.9109756,28.6409756 95.9109756,50.0239024 C95.9109756,74.8458537 75.7158537,95.0385366 50.8939024,95.0385366 M40.3231707,9.78487805 C44.7597561,13.2190244 45.5085366,19.0873171 45.6231707,21.5360976 C43.5621951,22.8531707 38.3817073,25.6043902 32.9963415,23.9482927 C27.845122,22.3678049 23.6597561,17.1702439 20.5402439,8.48731707 C29.4231707,6.06292683 36.0695122,6.49463415 40.3231707,9.78487805 M50.6256098,12.4507317 C50.1963415,13.3921951 49.8158537,14.3312195 49.4817073,15.2678049 C49.2134146,14.38 48.8768293,13.4629268 48.4597561,12.5458537 C49.1841463,12.5190244 49.8963415,12.4531707 50.6256098,12.4507317 M59.0036585,8.05317073 C60.0182927,6.74585366 61.1231707,5.45560976 62.4378049,4.21170732 C63.4158537,3.28487805 63.4597561,1.74097561 62.5329268,0.762926829 C61.6060976,-0.217560976 60.0646341,-0.256585366 59.0865854,0.667804878 C56.7109756,2.91414634 54.8207317,5.26536585 53.2670732,7.64585366 C52.4743902,7.62146341 51.7036585,7.5604878 50.8939024,7.5604878 C49.0158537,7.5604878 47.1426829,7.64341463 45.3036585,7.78487805 C44.7134146,7.14585366 44.0792683,6.52634146 43.347561,5.95804878 C37.3841463,1.31414634 28.4158537,0.836097561 16.6865854,4.54097561 C15.4012195,4.94585366 14.6890244,6.31414634 15.0939024,7.59707317 C16.1256098,10.8629268 17.3134146,13.7287805 18.6280488,16.2678049 C7.24268293,23.7970732 0.998780488,35.6921951 0.998780488,50.0239024 C0.998780488,77.5336585 23.3817073,99.9165854 50.8939024,99.9165854 C78.4060976,99.9165854 100.789024,77.5336585 100.789024,50.0239024 C100.789024,27.0117073 84.2963415,10.8873171 59.0036585,8.05317073"/></g></g></g><text x="0" y="115" fill="#000000" font-size="5px" font-weight="bold" font-family="'Helvetica Neue', Helvetica, Arial-Unicode, Arial, Sans-serif">Created by AomAm</text><text x="0" y="120" fill="#000000" font-size="5px" font-weight="bold" font-family="'Helvetica Neue', Helvetica, Arial-Unicode, Arial, Sans-serif">from the Noun Project</text></svg>