<svg xmlns="http://www.w3.org/2000/svg" viewBox="0 0 95 118.75" x="0px" y="0px"><defs><style>.cls-1,.cls-2{fill:none;stroke:#000;}.cls-1{stroke-miterlimit:40;stroke-width:1.5px;}.cls-2{stroke-linejoin:round;stroke-width:0.9px;}</style></defs><title>Potted Succulents</title><path class="cls-1" d="M33.33,33.94a80.66,80.66,0,0,1-.13-14.42c.55,5.92,2.67,12.73,4.58,17.9"/><polyline class="cls-2" points="36.67 34.27 34.44 33.6 33.9 33.94"/><polyline class="cls-2" points="35.71 31.27 34.09 30.78 33.2 31.34"/><path class="cls-1" d="M27.61,34a92,92,0,0,1-6.56-12.31C24.27,25.78,33.47,33.6,39,39.5"/><polyline class="cls-2" points="32.87 36.07 33.09 35.62 34.7 35.18"/><polyline class="cls-2" points="28.93 35.73 30.45 33.27 32.22 32.81"/><polyline class="cls-2" points="27.32 33.37 28.48 31.06 29.66 30.64"/><polyline class="cls-2" points="25.53 30.26 26.36 28.76 27.61 28.45"/><path class="cls-1" d="M33.88,44c-3.11-3.11-9.67-9.48-19.17-13.38a73.44,73.44,0,0,1,24.39,9.18"/><polyline class="cls-2" points="35.19 44.93 37.52 41.98 38.87 41.87"/><polyline class="cls-2" points="33.25 42.68 35.19 40.14 38.65 39.53"/><polyline class="cls-2" points="31.14 40.65 32.96 38.5 35.79 37.94"/><polyline class="cls-2" points="29.2 39.13 30.52 37.24 33.61 36.81"/><polyline class="cls-2" points="26.93 37.41 28.27 35.79 30.93 35.55"/><polyline class="cls-2" points="24.18 35.54 25.32 34.27 27.8 34.27"/><path class="cls-1" d="M63.13,43.22a72.5,72.5,0,0,0,11.27-6,75.63,75.63,0,0,1-9.5,8.3"/><polyline class="cls-2" points="65.68 44.93 65.13 43.99 62.15 43.99"/><polyline class="cls-2" points="67.19 43.71 66.64 42.77 63.4 42.77"/><path class="cls-1" d="M49.82,25.93c.66-3.14,1.35-6.3,2-9.21a84.5,84.5,0,0,1-.7,14.72"/><path class="cls-1" d="M45.59,33.94c.93-4.86,1.71-12.14.5-18.32a64.73,64.73,0,0,1,5.3,18.22"/><line class="cls-2" x1="46.68" y1="40.43" x2="48.77" y2="39.79"/><polyline class="cls-2" points="46.4 37.49 48.99 36.5 50.42 37.31"/><polyline class="cls-2" points="45.39 34.31 48.99 33.04 51.45 34.63"/><polyline class="cls-2" points="46.13 31.04 48.96 29.84 51.12 31.43"/><polyline class="cls-2" points="46.66 27.8 48.8 26.82 50.19 27.48"/><path class="cls-1" d="M51.43,31.32c1.15-3.95,2.19-7.69,2.57-9.63.16,1.81.32,4.37.46,7.15"/><path class="cls-1" d="M47.2,45.52C48.8,36,55.1,25.67,64,16.29c-6,12.13-8.09,17.43-8.38,23.08"/><polyline class="cls-2" points="48.05 41.81 51.6 40.12 53.6 41.61"/><polyline class="cls-2" points="47.41 44.39 51.15 42.92 52.18 43.61"/><polyline class="cls-2" points="48.99 38.68 52.29 37.38 55.63 39.62"/><polyline class="cls-2" points="50.09 36.08 53.1 34.9 55.75 36.69"/><polyline class="cls-2" points="51.15 33.65 53.91 32.79 56.35 34.57"/><polyline class="cls-2" points="52.64 31.3 55.03 30.37 56.88 31.87"/><polyline class="cls-2" points="54.1 28.74 56.13 27.99 57.84 29.38"/><polyline class="cls-2" points="55.61 26.65 57.36 26 58.58 27"/><polyline class="cls-2" points="57.09 24.57 58.84 23.92 60.06 24.91"/><path class="cls-1" d="M41.6,35.79c.67-6.4,1.24-14.43.6-19.08a142,142,0,0,1,4.48,28.8"/><polyline class="cls-2" points="42.37 28.14 43.54 27.18 44.66 28.02"/><polyline class="cls-2" points="42 30.37 43.67 29.17 44.99 29.94"/><polyline class="cls-2" points="41.75 33.04 43.8 31.93 45.47 33.04"/><polyline class="cls-2" points="41.6 35.79 44.02 34.57 45.8 35.46"/><polyline class="cls-2" points="43.25 37.49 44.15 37.07 46.02 38.07"/><line class="cls-2" x1="44.15" y1="40.12" x2="46.39" y2="41.08"/><line class="cls-2" x1="45.01" y1="43.22" x2="46.65" y2="43.96"/><path class="cls-1" d="M39.65,45.52s-.17,0-.34-1.1c-.27-1.76-.53-6.33,0-18.22,1.21,12.3,5.93,12.27,5.48,19.32"/><polyline class="cls-2" points="44.66 44.69 40.71 43.3 39.31 44.42"/><polyline class="cls-2" points="44.55 42.49 40.62 41.08 38.99 42.02"/><polyline class="cls-2" points="43.5 39.48 40.3 38.5 39.01 39.48"/><path class="cls-2" d="M42.24,37.07S40,35.94,40,35.94l-1,.92"/><path class="cls-1" d="M50.6,45.52s13.1-15.7,16.55-21.9c-2,6-6.64,14.22-9.31,18.71"/><line class="cls-2" x1="51.51" y1="44.32" x2="55.97" y2="43.91"/><polyline class="cls-2" points="52.7 42.4 56.7 41.61 57.49 42.78"/><polyline class="cls-2" points="55.26 40 58.1 39.62 58.8 40.72"/><polyline class="cls-2" points="57.1 37.65 59.53 37.22 60.05 38.53"/><polyline class="cls-2" points="58.88 35.13 60.92 34.9 61.57 36.07"/><path class="cls-1" d="M54,45.52s15.8-12.5,26.3-26c-6.8,14.3-19.5,26-19.5,26"/><polyline class="cls-2" points="56.7 43.3 61.44 42.49 62.37 43.99"/><polyline class="cls-2" points="59.7 40.72 64.02 40.12 64.59 41.78"/><polyline class="cls-2" points="62.64 38.19 66.39 37.85 66.72 39.62"/><polyline class="cls-2" points="65.45 35.51 68.75 35.18 68.94 36.77"/><polyline class="cls-2" points="68.27 32.79 70.78 32.52 71.24 33.9"/><polyline class="cls-2" points="70.7 30.37 72.63 30.13 73.17 31.32"/><path class="cls-1" d="M29.6,45.52s-2.1-3.54-12.75-4c11.14-2,20.95,4,20.95,4"/><polyline class="cls-2" points="28.93 44.8 30.78 43.92 35.47 44.53"/><polyline class="cls-2" points="26.93 43.74 29.49 42.58 31.78 42.84"/><path d="M67.15,46.28c3.55,0,4.95,1.67,4.95,4.7V78a1.62,1.62,0,0,1-1.77,1.41H24.52a1.48,1.48,0,0,1-1.62-1.29V51.39c0-3.75.8-5.1,5.85-5.1h38.4m0-1.5H28.75c-5.5,0-7.35,1.67-7.35,6.6V78.09a3,3,0,0,0,3.12,2.79H70.33A3.11,3.11,0,0,0,73.6,78V51c0-4.06-2.23-6.2-6.45-6.2Z"/><text x="0" y="110" fill="#000000" font-size="5px" font-weight="bold" font-family="'Helvetica Neue', Helvetica, Arial-Unicode, Arial, Sans-serif">Created by Marisa Low</text><text x="0" y="115" fill="#000000" font-size="5px" font-weight="bold" font-family="'Helvetica Neue', Helvetica, Arial-Unicode, Arial, Sans-serif">from the Noun Project</text></svg>