<svg xmlns="http://www.w3.org/2000/svg" xmlns:xlink="http://www.w3.org/1999/xlink" version="1.1" x="0px" y="0px" viewBox="0 0 100 125" enable-background="new 0 0 100 100" xml:space="preserve"><path d="M70.52,27.021c-0.177-0.293-0.362-0.574-0.554-0.854l-0.002-0.009c-0.757-1.151-1.604-2.229-2.553-3.25  c-5.238-5.676-12.282-8.562-19.086-10.386c-4.119-1.097-8.335-1.621-12.513-2.113c-0.823-0.084-1.636-0.21-2.441-0.337  c-0.077-0.006-0.155-0.012-0.234-0.028c-2.893-0.397-5.662-0.659-8.302,1.031c-0.317,0.034-0.591,0.276-0.687,0.762  c-0.726,3.592-1.854,6.568-1.772,10.346c0.091,4.343,0.332,8.66,0.719,12.991c0.042,0.442,0.081,0.876,0.136,1.297  c0.027,0.259,0.054,0.519,0.086,0.757c0.928,7.356,3.233,13.951,7.525,19.924c1.258,1.742,2.625,3.375,4.101,4.893  c0.395,0.422,0.795,0.823,1.212,1.221c0,0,0.008-0.001,0.009,0.008c3.279,3.166,6.969,5.792,10.807,7.787  c7.205,3.779,14.245,2.435,21.721,2.414c1.882,5.104,2.867,10.397,3.782,15.783c0.262,1.538,2.33,1.187,2.068-0.352  c-1-5.88-2.107-11.691-4.284-17.232c1.494-8.639,6.031-16.035,5.494-25.305C75.343,39.422,73.992,32.675,70.52,27.021z   M51.09,15.716c2.683,0.863,5.323,1.978,7.817,3.43c-2.491,0.17-4.991,0.175-7.464,0.508C51.384,18.345,51.262,17.026,51.09,15.716z   M51.498,20.866c2.867-0.4,5.785-0.359,8.669-0.615c0.136-0.003,0.237-0.06,0.308-0.149c1.17,0.778,2.31,1.62,3.387,2.551  c-4.17,0.152-8.222,0.402-12.354,1.084C51.533,22.775,51.523,21.819,51.498,20.866z M65.13,23.805  c0.829,0.777,1.62,1.62,2.367,2.509c0.345,0.43,0.683,0.861,0.987,1.298c0.223,0.314,0.429,0.621,0.622,0.959  c-0.17,0-0.351-0.009-0.52,0c-2.703,0.01-5.429-0.093-8.13-0.064c-3.075,0.035-6.182,0.631-9.248,0.576  c0.132-1.38,0.22-2.763,0.268-4.13C56.037,24.188,60.499,23.957,65.13,23.805z M40.268,53.928  c-3.337-4.357-5.202-9.269-6.218-14.743c0.836-0.142,1.672-0.275,2.503-0.396c1.218,4.659,3.705,8.624,5.957,12.804  c1.879,3.491,4.099,7.736,6.875,10.645c-0.06,0.002-0.126,0.013-0.185,0.014c-0.707,0.051-1.583,0.151-2.552,0.258  C44.149,60.684,42.141,56.385,40.268,53.928z M45.104,62.643c-0.892,0.064-1.808,0.083-2.706,0.059  c-5.905-5.748-11.242-14.455-13.137-22.898c1.242-0.006,2.519-0.204,3.756-0.434c0.945,5.107,2.635,9.588,5.437,13.899  c1.615,2.491,3.491,4.664,5.021,7.208C43.985,61.327,44.497,62.032,45.104,62.643z M43.445,51.092  c-2.207-4.022-4.65-7.926-5.844-12.443c1.379-0.196,2.763-0.373,4.135-0.557c2.06,9.109,8.374,15.755,12.256,23.87  c-1.055,0.062-2.111,0.095-3.137,0.172C47.853,59.391,45.406,54.665,43.445,51.092z M42.784,37.943  c0.771-0.122,1.55-0.244,2.317-0.384c3.3,8.145,7.008,17.287,12.274,24.178c-0.743,0.078-1.493,0.127-2.244,0.167  C51.32,53.709,44.855,47.069,42.784,37.943z M46.167,37.368c0.994-0.208,1.977-0.434,2.951-0.717  c1.653,4.067,2.994,8.295,5.187,12.085c2.401,4.164,5.347,8.012,7.673,12.239c-1.083,0.281-2.2,0.471-3.332,0.624  C53.283,54.841,49.488,45.587,46.167,37.368z M56.86,50.95c-2.905-4.626-4.652-9.538-6.73-14.598  c0.242-0.081,0.492-0.162,0.736-0.233c0.257,0.309,0.514,0.626,0.763,0.936c4.246,5.2,7.369,11.098,9.978,17.475  c0.762,1.884,1.599,3.804,2.429,5.783c-0.334,0.134-0.672,0.25-1.013,0.348C61.183,57.3,58.897,54.17,56.86,50.95z M62.381,50.88  c-0.377-0.863-0.768-1.706-1.174-2.545c0.766,0.348,1.624,0.544,2.445,0.561C63.216,49.537,62.784,50.196,62.381,50.88z   M63.443,53.426c0.368-0.639,0.73-1.257,1.097-1.857c0.028,0.513,0.061,1.054,0.063,1.572c0.007,0.889-0.113,1.739-0.246,2.611  c-0.103-0.255-0.194-0.494-0.285-0.732c-0.203-0.542-0.412-1.064-0.627-1.584L63.443,53.426z M65.627,53.856  c0.098-1.326-0.102-2.65-0.047-3.979c0.534-0.863,1.07-1.717,1.562-2.582c0.643,5.128,0.844,10.713,0.193,15.758  c-0.709-1.774-1.45-3.526-2.164-5.27C65.278,56.456,65.527,55.173,65.627,53.856z M64.477,47.641  c-1.327,0.206-2.929-0.156-3.998-1.137c-0.081-0.074-0.165-0.119-0.242-0.125c-0.431-0.826-0.869-1.66-1.329-2.461  c2.614,0.406,5.221,0.168,7.809-0.224C66.096,45.099,65.311,46.385,64.477,47.641z M58.128,42.584  c-0.943-1.589-1.951-3.108-3.029-4.595c2.16,0.238,4.312,0.43,6.478,0.452c2.258,0.017,4.489-0.421,6.741-0.599  c-0.188,1.146-0.428,2.291-0.734,3.438c-0.107,0.37-0.214,0.749-0.349,1.114C64.22,42.877,61.184,43.188,58.128,42.584z   M62.669,37.21c-2.815,0.264-5.726-0.18-8.556-0.559c-0.41-0.516-0.827-1.061-1.252-1.604c5.247-0.13,10.639,0.194,15.833-0.445  c-0.049,0.673-0.112,1.348-0.203,2.008C66.537,36.737,64.62,37.024,62.669,37.21z M51.938,33.865  c-0.357-0.447-0.725-0.912-1.102-1.376c0.098-0.729,0.183-1.477,0.26-2.223c3.102,0.068,6.168-0.56,9.283-0.562  c2.766-0.001,5.547,0.082,8.308,0.053c0.089,1.226,0.106,2.425,0.062,3.615C63.255,34.101,57.483,33.694,51.938,33.865z   M48.88,15.086c0.425,2.801,0.571,5.561,0.535,8.303c-0.726-2.915-1.622-5.783-2.269-8.74C47.721,14.775,48.299,14.921,48.88,15.086  z M46.026,14.418c0.911,4.36,2.434,8.556,3.158,12.967c0.008,0.048,0.015,0.086,0.031,0.131c-0.072,0.882-0.154,1.795-0.25,2.681  c-0.708-0.856-1.449-1.708-2.189-2.559c-0.003-0.02-0.012-0.018-0.012-0.018c-1.417-4.577-2.961-9.103-3.914-13.807  C43.91,13.987,44.966,14.188,46.026,14.418z M41.752,13.611c0.807,4.143,2.07,8.12,3.328,12.118  c-1.685-1.854-3.429-3.648-5.244-5.313c-0.64-2.461-1.245-4.918-1.973-7.345C39.167,13.22,40.458,13.411,41.752,13.611z   M36.724,12.922c0.638,2.051,1.171,4.13,1.705,6.218c-0.898-0.776-1.802-1.541-2.71-2.226c-0.399-1.496-1.048-2.91-1.519-4.374  C35.057,12.678,35.906,12.817,36.724,12.922z M33.054,12.364c0.354,1.181,0.837,2.32,1.238,3.473c-1.94-1.4-3.929-2.586-5.963-3.53  C29.838,12.022,31.451,12.148,33.054,12.364z M25.912,13.803c1.577,0.611,3.129,1.383,4.639,2.309  c-1.725,0.264-3.463,0.404-5.207,0.407C25.525,15.638,25.721,14.735,25.912,13.803z M25.112,17.711  c2.333,0.003,4.658-0.187,6.94-0.633c1.074,0.716,2.138,1.513,3.174,2.353c-3.547,0.31-7.004,1.308-10.577,1.368  C24.76,19.745,24.918,18.722,25.112,17.711z M24.527,24.377c-0.03-0.826-0.012-1.62,0.036-2.39c4.043-0.052,7.928-1.329,11.974-1.46  c0.717,0.611,1.424,1.263,2.114,1.917c-1.885,0.125-3.737,0.596-5.626,0.8c-2.459,0.252-5.824,1.538-8.495,1.249  C24.531,24.455,24.525,24.417,24.527,24.377z M24.573,25.649c1.666,0.088,3.291-0.471,4.965-0.736  c3.24-0.512,6.949-1.475,10.304-1.313c0.856,0.831,1.685,1.697,2.506,2.574c-5.87,1.018-11.722,2.092-17.643,2.756  C24.647,27.836,24.603,26.729,24.573,25.649z M24.771,30.121c6.226-0.678,12.381-1.822,18.548-2.891  c0.834,0.903,1.638,1.822,2.433,2.743c-6.923,1.031-13.911,1.633-20.818,2.709C24.875,31.833,24.815,30.983,24.771,30.121z   M25.045,33.885c7.18-1.123,14.43-1.73,21.62-2.846c0.286,0.333,0.554,0.658,0.83,0.983c-7.424,1.184-14.903,1.899-22.359,2.845  C25.105,34.54,25.074,34.203,25.045,33.885z M25.27,36.056c7.71-0.96,15.457-1.701,23.124-2.956l0.321,0.385  c0.002,0.01,0.002,0.01,0.002,0.01c0.139,0.172,0.276,0.325,0.416,0.496c0.074,0.036,0.151,0.082,0.24,0.106  c-0.04,0.017-0.08,0.033-0.121,0.04c-4.194,1.31-8.514,1.536-12.856,2.128c-3.212,0.429-8.175,2.729-11.102-0.066  c-0.047-0.031-0.09-0.083-0.131-0.124L25.27,36.056z M37.705,61.634c-1.253-1.214-2.453-2.515-3.577-3.818  c-4.598-5.364-7.191-11.608-8.416-18.708c0.787,0.374,1.609,0.557,2.459,0.647c1.81,8.291,6.843,16.865,12.563,22.821  C39.595,62.436,38.548,62.135,37.705,61.634z M41.313,64.831c1.174,0.045,2.373-0.013,3.523-0.052  c-0.502,0.496-0.985,1.009-1.389,1.643C42.721,65.901,42.002,65.378,41.313,64.831z M44.387,67.044  c0.616-0.887,1.407-1.588,2.167-2.322c1.368-0.018,2.78-0.023,4.241-0.037c-1.001,1.47-2.178,2.755-3.289,4.126  C46.445,68.277,45.4,67.692,44.387,67.044z M50.086,69.926c-0.508-0.188-1.02-0.394-1.52-0.631c1.25-1.513,2.551-2.965,3.598-4.668  c1.551-0.039,3.11-0.129,4.657-0.293c-1.317,2.257-3.213,4.083-4.686,6.23C51.457,70.376,50.775,70.17,50.086,69.926z   M53.321,70.831c1.604-2.228,3.583-4.157,4.851-6.659c1.4-0.179,2.771-0.433,4.09-0.782c-0.504,0.994-0.909,2.069-1.401,3.082  c-0.836,1.733-2.117,3.457-3.325,4.865C56.135,71.262,54.73,71.109,53.321,70.831z M63.46,71.237  c-0.016,0.012-0.023,0.014-0.03,0.023c-1.494,0.079-2.981,0.136-4.469,0.105c0.934-1.174,1.797-2.455,2.553-3.766  c0.876-1.498,1.352-3.26,2.327-4.676l0.01-0.002c0.37-0.121,0.729-0.261,1.089-0.4c0.404,0.978,0.784,1.958,1.148,2.951  C65.756,67.671,64.878,69.716,63.46,71.237z M64.944,71.209c0.822-1.117,1.429-2.413,1.818-3.817  c0.415,1.239,0.788,2.476,1.092,3.714C66.879,71.124,65.905,71.153,64.944,71.209z M71.302,60.445  c-0.78,2.371-1.618,4.749-2.287,7.17c-0.281-0.851-0.58-1.709-0.905-2.563c1.069-6.074,0.768-13.059-0.118-19.318  c0.603-1.159,1.137-2.373,1.565-3.706c0.868,6.106,1.331,12.232,1.75,18.396C71.308,60.434,71.308,60.434,71.302,60.445z   M73.592,49.794c-0.136,2.75-0.707,5.347-1.432,7.895c-0.431-6.084-0.948-12.132-1.914-18.163l-0.007-0.038  c0.506-2.382,0.704-4.869,0.663-7.363C73.184,37.63,73.867,44.247,73.592,49.794z"/><text x="0" y="115" fill="#000000" font-size="5px" font-weight="bold" font-family="'Helvetica Neue', Helvetica, Arial-Unicode, Arial, Sans-serif">Created by Four Eighteen</text><text x="0" y="120" fill="#000000" font-size="5px" font-weight="bold" font-family="'Helvetica Neue', Helvetica, Arial-Unicode, Arial, Sans-serif">from the Noun Project</text></svg>