<svg xmlns="http://www.w3.org/2000/svg" xmlns:xlink="http://www.w3.org/1999/xlink" version="1.1" x="0px" y="0px" viewBox="0 0 100 125" enable-background="new 0 0 100 100" xml:space="preserve"><g><path fill="#000000" d="M17.311,76.875c-2.036,0-3.919-0.52-5.597-1.545C5.6,71.595,4.459,62.161,9.17,54.302   c1.617-2.696,3.767-4.951,6.233-6.542c-0.944-5.151,1.815-10.209,6.664-12.118l6.23-2.455c2.267-0.893,3.618-1.105,5.128-0.852   c2.32-4,7.131-6.565,12.371-6.565h8.864c5.187,0,9.971,2.526,12.313,6.467c0.452-0.114,0.881-0.169,1.301-0.169   c1.112,0,2.044,0.377,3.222,0.854l6.896,2.72c2.683,1.056,4.795,3.107,5.95,5.775c0.863,1.997,1.111,4.172,0.723,6.313   c2.488,1.593,4.655,3.859,6.281,6.572c4.711,7.859,3.569,17.293-2.544,21.028c-1.661,1.015-3.535,1.529-5.572,1.529   c-4.775,0-9.749-2.878-13.099-7.546c-2.265,1.939-4.096,2.594-5.535,2.026l-6.23-2.452c-0.73-0.29-1.595-1.061-2.205-1.944   c-0.51,0.211-1.005,0.314-1.499,0.314h-8.864c-0.535,0-1.082-0.124-1.629-0.367c-0.577,0.971-1.33,1.702-2.071,1.996l-6.234,2.453   c-1.452,0.569-3.257-0.085-5.506-2c-2.163,3.009-5.026,5.323-8.113,6.547C20.586,76.543,18.926,76.875,17.311,76.875z    M32.306,33.231c-1.011,0-2.069,0.255-3.652,0.879l-6.231,2.454c-4.504,1.774-7.024,6.539-5.993,11.329l0.074,0.344l-0.297,0.184   c-2.456,1.516-4.599,3.727-6.198,6.393c-4.431,7.394-3.439,16.217,2.212,19.67c2.749,1.681,6.205,1.851,9.664,0.481   c3.06-1.212,5.894-3.569,7.979-6.637l0.314-0.462l0.415,0.372c2.1,1.885,3.751,2.637,4.914,2.18l6.232-2.453   c0.611-0.241,1.314-1.009,1.789-1.953l0.231-0.458l0.445,0.25c0.555,0.313,1.075,0.464,1.593,0.464h8.864   c0.466,0,0.941-0.128,1.456-0.395l0.411-0.211l0.234,0.399c0.564,0.965,1.413,1.688,1.96,1.904l6.229,2.452   c1.151,0.454,2.825-0.3,4.941-2.206l0.416-0.375l0.314,0.465c3.166,4.668,7.997,7.568,12.605,7.568c1.855,0,3.56-0.467,5.065-1.387   c5.65-3.453,6.643-12.276,2.213-19.67c-1.609-2.683-3.769-4.903-6.245-6.421l-0.3-0.183l0.075-0.345   c0.438-2.047,0.232-4.14-0.594-6.052c-1.051-2.425-2.972-4.29-5.409-5.25l-6.898-2.722c-1.663-0.672-2.703-1.037-4.253-0.553   l-0.381,0.12l-0.192-0.353c-2.095-3.825-6.667-6.296-11.649-6.296h-8.864c-5.022,0-9.609,2.498-11.687,6.364l-0.175,0.327   l-0.36-0.079C33.146,33.277,32.73,33.231,32.306,33.231z M17.317,74.894c-1.68,0-3.223-0.423-4.588-1.257   c-5.189-3.171-6.032-11.386-1.882-18.311c1.431-2.387,3.327-4.398,5.482-5.817l0.429-0.282l0.26,0.445   c2.052,3.5,7.344,12.182,12.164,17.199l0.274,0.285l-0.217,0.331c-1.997,3.049-4.736,5.377-7.713,6.557   C20.104,74.607,18.688,74.894,17.317,74.894z M83.203,74.89c-4.378,0-8.957-2.85-11.951-7.438l-0.215-0.331l0.272-0.285   c4.818-5.031,10.099-13.698,12.145-17.192l0.262-0.443l0.428,0.28c2.173,1.42,4.084,3.441,5.525,5.847   c4.15,6.926,3.308,15.141-1.882,18.311C86.424,74.469,84.883,74.89,83.203,74.89z M65.834,69.591c-0.188,0-0.364-0.031-0.526-0.096   l-6.229-2.45c-0.449-0.178-1.213-0.92-1.594-1.703l-0.157-0.318l0.251-0.251c5.431-5.456,9.197-23.574,9.896-27.151l0.011-0.143   c-0.002-0.841-0.146-1.758-0.435-2.677l-0.155-0.497l0.499-0.131c1.132-0.295,1.932,0.005,3.373,0.586l6.911,2.726   c2.192,0.864,3.922,2.542,4.864,4.723c0.933,2.156,0.991,4.555,0.163,6.756C77.837,57.302,69.366,69.591,65.834,69.591z    M34.624,69.591c-3.53,0-12.002-12.289-16.835-20.55c-1.752-4.638,0.503-9.787,4.991-11.555l6.231-2.454   c1.521-0.6,2.727-0.945,3.967-0.768l0.567,0.081l-0.167,0.554c-0.268,0.89-0.404,1.774-0.404,2.628l0.016,0.143   c0.681,3.47,4.38,21.303,9.746,26.948l0.211,0.222l-0.104,0.288c-0.331,0.921-1.035,1.749-1.462,1.917l-6.231,2.451   C34.988,69.56,34.811,69.591,34.624,69.591z M54.661,65.278h-8.864c-6.307,0-11.778-27.473-11.833-27.75l-0.01-0.051l0-0.052   c0.065-5.335,5.377-9.676,11.842-9.676h8.864c6.466,0,11.777,4.341,11.843,9.677l0.001,0.051l-0.011,0.051   C66.438,37.805,60.973,65.278,54.661,65.278z"/></g><text x="0" y="115" fill="#000000" font-size="5px" font-weight="bold" font-family="'Helvetica Neue', Helvetica, Arial-Unicode, Arial, Sans-serif">Created by Domingo Marti</text><text x="0" y="120" fill="#000000" font-size="5px" font-weight="bold" font-family="'Helvetica Neue', Helvetica, Arial-Unicode, Arial, Sans-serif">from the Noun Project</text></svg>